<svg xmlns="http://www.w3.org/2000/svg" xmlns:xlink="http://www.w3.org/1999/xlink" width="87" zoomAndPan="magnify" viewBox="0 0 65.25 374.999984" height="500" preserveAspectRatio="none" version="1.2">
  <defs>
    <clipPath id="b915434452">
      <path d="M 0 2.128906 L 62 2.128906 L 62 372.867188 L 0 372.867188 Z M 0 2.128906 "/>
    </clipPath>
  </defs>
  <g id="571bf94f97">
    <g clip-rule="nonzero" clip-path="url(#b915434452)">
      <path style=" stroke:none;fill-rule:nonzero;fill:#000000;fill-opacity:0.3;" d="M 5.089844 13.03125 C 2.335938 18.570312 2.332031 25.1875 2.425781 31.449219 C 4.011719 138.710938 3.0625 246.226562 0.21875 353.453125 C 0.132812 356.636719 0.078125 359.953125 1.445312 362.824219 C 3.496094 367.113281 14.046875 370.429688 18.507812 371.472656 C 24.527344 372.882812 30.808594 372.417969 36.972656 371.949219 C 43.890625 371.417969 56.007812 369.066406 59.460938 361.828125 C 60.714844 359.183594 60.6875 356.136719 60.632812 353.210938 C 59.582031 296.613281 61.535156 240.15625 61.542969 183.550781 C 61.546875 154.902344 61.195312 126.25 60.492188 97.609375 C 60.003906 77.949219 62.707031 58.375 61.769531 38.550781 C 61.285156 28.355469 62.699219 16.773438 53.90625 10.15625 C 43.085938 2.015625 14.453125 -2.175781 5.964844 11.460938 C 5.644531 11.972656 5.351562 12.5 5.089844 13.03125 "/>
    </g>
    <path style=" stroke:none;fill-rule:nonzero;fill:#000000;fill-opacity:0.8;" d="M 56.257812 21.785156 C 49.6875 18.03125 41.28125 16.648438 33.820312 16.109375 C 25.753906 15.523438 17.710938 16.503906 9.839844 18.269531 C 6.84375 18.941406 8.1875 23.832031 11.011719 22.824219 C 18.136719 20.285156 25.613281 19.363281 33.164062 19.742188 C 40.921875 20.140625 47.699219 22.539062 55.078125 24.589844 C 56.730469 25.050781 57.773438 22.652344 56.257812 21.785156 Z M 33.066406 359.425781 C 28.191406 359.445312 23.363281 359.039062 18.542969 358.328125 C 14.503906 357.730469 9.351562 357.390625 6.113281 354.753906 C 4.828125 353.714844 6.066406 351.894531 7.378906 351.789062 C 11.46875 351.46875 16.175781 353.839844 20.261719 354.53125 C 24.707031 355.28125 29.246094 355.605469 33.753906 355.546875 C 38.5 355.484375 43.226562 354.984375 47.910156 354.175781 C 50.546875 353.722656 54.363281 351.679688 56.597656 353.722656 C 56.742188 353.851562 56.789062 354.085938 56.742188 354.269531 C 55.824219 357.582031 49.75 357.726562 46.886719 358.238281 C 42.339844 359.054688 37.683594 359.414062 33.066406 359.425781 "/>
  </g>
</svg>