<svg xmlns="http://www.w3.org/2000/svg" xmlns:xlink="http://www.w3.org/1999/xlink" width="130" zoomAndPan="magnify" viewBox="0 0 97.5 374.999989" height="500" preserveAspectRatio="none" version="1.2"><g id="29b08b5bf1">

<path style=" stroke:none;fill-rule:nonzero;fill:#000000;fill-opacity:0.5;" d="M 89.375 14.191406 C 81.746094 2.421875 5.230469 1.113281 2.613281 20.078125 C -0.00390625 39.042969 1.957031 355.574219 8.5 364.078125 C 15.039062 372.578125 90.707031 373.886719 92.765625 364.078125 C 94.824219 354.265625 97.003906 25.964844 89.375 14.191406 Z M 89.375 14.191406 "/>

<path style=" stroke:none;fill-rule:nonzero;fill:#ffffff;fill-opacity:0.05;" d="M 48.105469 281.070312 C 22.503906 280.320312 23.101562 339.316406 48.105469 339.382812 C 73.109375 339.445312 73.703125 281.816406 48.105469 281.070312 Z M 48.105469 281.070312 "/>

<path style=" stroke:none;fill-rule:nonzero;fill:#ffffff;fill-opacity:0.05;" d="M 48.105469 27.917969 C 22.503906 27.171875 23.101562 86.167969 48.105469 86.230469 C 73.109375 86.292969 73.703125 28.667969 48.105469 27.917969 Z M 48.105469 27.917969 "/>

<path style=" stroke:none;fill-rule:nonzero;fill:#000000;fill-opacity:0.6;" d="M 50.832031 101.746094 C 28.941406 101.746094 9.949219 99.914062 9.664062 99.886719 C 8.738281 99.792969 8.0625 98.96875 8.152344 98.046875 C 8.242188 97.117188 9.074219 96.453125 9.992188 96.535156 C 10.417969 96.574219 52.824219 100.667969 83.699219 96.539062 C 84.589844 96.417969 85.46875 97.0625 85.589844 97.988281 C 85.714844 98.910156 85.066406 99.753906 84.144531 99.878906 C 73.660156 101.28125 61.875 101.746094 50.832031 101.746094 Z M 50.832031 101.746094 "/>

<path style=" stroke:none;fill-rule:nonzero;fill:#000000;fill-opacity:0.6;" d="M 50.832031 267.136719 C 28.941406 267.136719 9.949219 265.300781 9.664062 265.273438 C 8.738281 265.183594 8.0625 264.359375 8.152344 263.433594 C 8.242188 262.503906 9.074219 261.855469 9.992188 261.921875 C 10.417969 261.964844 52.824219 266.054688 83.699219 261.929688 C 84.589844 261.8125 85.46875 262.453125 85.589844 263.375 C 85.714844 264.296875 85.066406 265.144531 84.144531 265.265625 C 73.660156 266.667969 61.875 267.136719 50.832031 267.136719 Z M 50.832031 267.136719 "/>

<path style=" stroke:none;fill-rule:nonzero;fill:#000000;fill-opacity:0.6;" d="M 50.832031 251.308594 C 28.941406 251.308594 9.949219 249.476562 9.664062 249.449219 C 8.738281 249.355469 8.0625 248.53125 8.152344 247.609375 C 8.242188 246.683594 9.074219 246.007812 9.992188 246.09375 C 10.417969 246.136719 52.824219 250.230469 83.699219 246.101562 C 84.589844 245.976562 85.46875 246.625 85.589844 247.550781 C 85.714844 248.46875 85.066406 249.316406 84.144531 249.441406 C 73.660156 250.84375 61.875 251.308594 50.832031 251.308594 Z M 50.832031 251.308594 "/>
<path style=" stroke:none;fill-rule:nonzero;fill:#000000;fill-opacity:0.6;" d="M 50.832031 116.378906 C 28.941406 116.378906 9.949219 114.542969 9.664062 114.515625 C 8.738281 114.425781 8.0625 113.601562 8.152344 112.675781 C 8.242188 111.75 9.074219 111.082031 9.992188 111.164062 C 10.417969 111.207031 52.816406 115.296875 83.699219 111.171875 C 84.589844 111.0625 85.46875 111.695312 85.589844 112.617188 C 85.714844 113.539062 85.066406 114.386719 84.144531 114.507812 C 73.660156 115.910156 61.875 116.378906 50.832031 116.378906 Z M 50.832031 116.378906 "/></g></svg>