<svg class="icon icon-borrow-book" 
xmlns="http://www.w3.org/2000/svg" 
width="320" height="320" 
viewBox="0 0 375 375">
  <defs>
    <clipPath id="cb8234f5a8">
      <path d="M 48.003906 8.945312 L 327 8.945312 L 327 365.945312 L 48.003906 365.945312 Z M 48.003906 8.945312 " clip-rule="nonzero"/>
    </clipPath>
    <clipPath id="9ee1aa04ef">
      <path d="M 131.730469 75.957031 L 243.480469 75.957031 L 243.480469 187.707031 L 131.730469 187.707031 Z M 131.730469 75.957031 " clip-rule="nonzero"/>
    </clipPath>
    <!-- Mask for cutout effect -->
    <mask id="cutout-mask">
      <!-- White: visible, Black: transparent (cutout) -->
      <rect width="100%" height="100%" fill="white"/>
      <g clip-path="url(#9ee1aa04ef)">
        <path d="M 237.101562 125.5625 L 193.664062 125.5625 L 193.664062 82.125 C 193.664062 78.710938 190.910156 75.957031 187.5 75.957031 C 184.085938 75.957031 181.332031 78.710938 181.332031 82.125 L 181.332031 125.5625 L 137.894531 125.5625 C 134.484375 125.5625 131.730469 128.316406 131.730469 131.726562 C 131.730469 135.140625 134.484375 137.894531 137.894531 137.894531 L 181.332031 137.894531 L 181.332031 181.332031 C 181.332031 184.742188 184.085938 187.496094 187.5 187.496094 C 190.910156 187.496094 193.664062 184.742188 193.664062 181.332031 L 193.664062 137.894531 L 237.101562 137.894531 C 240.515625 137.894531 243.269531 135.140625 243.269531 131.726562 C 243.269531 128.316406 240.515625 125.5625 237.101562 125.5625 Z M 237.101562 125.5625 " 
        fill="black"/>
      </g>
    </mask>
  </defs>
  <g clip-path="url(#cb8234f5a8)">
    <!-- Apply the mask to the base shape -->
    <path 

    class="icon body"
    mask="url(#cutout-mask)" 
    fill="#ffffff" d="M 316.34375 263.328125 C 322.070312 263.328125 326.820312 258.582031 326.820312 252.855469 L 326.820312 19.417969 C 326.820312 13.695312 322.070312 8.945312 316.34375 8.945312 L 114.25 8.945312 C 78.359375 8.945312 49.308594 38.125 49.308594 73.867188 L 49.308594 281.898438 C 48.609375 285.386719 48.191406 288.878906 48.191406 292.507812 C 48.191406 320.152344 70.675781 342.628906 98.328125 342.628906 L 107.546875 342.628906 L 107.546875 357.570312 C 107.546875 360.78125 109.503906 363.574219 112.296875 364.691406 C 115.230469 365.945312 118.582031 365.25 120.816406 363.015625 L 141.207031 342.628906 L 144.277344 342.628906 L 165.230469 363.574219 C 166.765625 365.109375 168.71875 365.808594 170.675781 365.808594 C 171.652344 365.808594 172.632812 365.667969 173.609375 365.25 C 176.542969 363.992188 178.355469 361.199219 178.355469 358.128906 L 178.355469 342.769531 L 316.34375 342.769531 C 322.070312 342.769531 326.820312 338.023438 326.820312 332.300781 C 326.820312 326.574219 322.070312 321.828125 316.34375 321.828125 L 288.132812 321.828125 L 288.132812 263.46875 L 316.34375 263.46875 Z M 267.183594 321.6875 L 178.355469 321.6875 L 178.355469 295.441406 C 178.355469 291.113281 174.867188 287.621094 170.535156 287.621094 L 115.089844 287.621094 C 110.761719 287.621094 107.269531 291.113281 107.269531 295.441406 L 107.269531 321.6875 L 98.050781 321.6875 C 81.988281 321.6875 68.859375 308.5625 68.859375 292.507812 C 68.859375 289.714844 69.28125 287.0625 69.976562 284.550781 C 70.117188 284.269531 70.117188 283.851562 70.257812 283.574219 C 70.535156 282.875 70.816406 282.175781 71.09375 281.339844 C 71.09375 281.199219 71.09375 281.199219 71.234375 281.058594 C 74.167969 274.078125 79.753906 268.492188 86.738281 265.5625 C 86.738281 265.5625 86.738281 265.5625 86.878906 265.5625 C 87.714844 265.28125 88.414062 265.003906 89.25 264.722656 C 89.390625 264.722656 89.671875 264.585938 89.808594 264.585938 C 90.507812 264.445312 91.066406 264.164062 91.765625 264.027344 C 92.042969 264.027344 92.324219 263.886719 92.605469 263.886719 C 93.300781 263.746094 93.859375 263.605469 94.558594 263.605469 C 94.839844 263.605469 95.117188 263.46875 95.398438 263.46875 C 96.375 263.328125 97.210938 263.328125 98.191406 263.328125 L 267.183594 263.328125 Z M 267.183594 321.6875 " 
    fill-opacity="1" fill-rule="nonzero"/>
  </g>
</svg>