<svg 
  class="icon icon-home-castle"
  xmlns="http://www.w3.org/2000/svg"  
width="320" 
viewBox="0 0 375 375" 
height="320">
  <path 
  class="tower-left"
  fill="#000000" d="M 12 361.6875 L 66.550781 361.6875 L 66.550781 152.101562 L 12 152.101562 Z M 24.773438 190.453125 C 24.773438 183.484375 30.425781 177.835938 37.394531 177.835938 L 41.15625 177.835938 C 48.125 177.835938 53.777344 183.484375 53.777344 190.453125 L 53.777344 213.839844 L 24.773438 213.839844 Z M 24.773438 261.921875 C 24.773438 254.953125 30.425781 249.304688 37.394531 249.304688 L 41.15625 249.304688 C 48.125 249.304688 53.777344 254.953125 53.777344 261.921875 L 53.777344 285.308594 L 24.773438 285.308594 Z M 24.773438 261.921875 " fill-opacity="1" fill-rule="nonzero"/>
  <path 
  class="tower-second-floor"
  fill="#000" d="M 236.15625 187.347656 L 236.15625 119.964844 L 138.84375 119.964844 L 138.84375 187.351562 L 153.386719 187.351562 L 153.386719 177.910156 C 153.386719 176.214844 154.761719 174.839844 156.460938 174.839844 L 177.152344 174.839844 C 178.851562 174.839844 180.222656 176.214844 180.222656 177.910156 L 180.222656 187.351562 L 194.769531 187.351562 L 194.769531 177.910156 C 194.769531 176.214844 196.144531 174.839844 197.84375 174.839844 L 218.53125 174.839844 C 220.234375 174.839844 221.605469 176.214844 221.605469 177.910156 L 221.605469 187.351562 L 236.15625 187.351562 Z M 199.304688 166.148438 L 175.710938 166.148438 L 175.710938 138.625 C 175.710938 132.957031 180.308594 128.367188 185.976562 128.367188 L 189.035156 128.367188 C 194.707031 128.367188 199.304688 132.960938 199.304688 138.625 Z M 199.304688 166.148438 " fill-opacity="1" fill-rule="nonzero"/>
  <path 
  class="tower-left-top"
  fill="#000" d="M 78.554688 119.964844 L 66.664062 119.964844 L 66.664062 133.039062 C 66.664062 134.734375 65.289062 136.109375 63.589844 136.109375 L 48.0625 136.109375 C 46.363281 136.109375 44.988281 134.734375 44.988281 133.039062 L 44.988281 119.964844 L 33.566406 119.964844 L 33.566406 133.039062 C 33.566406 134.734375 32.191406 136.109375 30.492188 136.109375 L 14.964844 136.109375 C 13.261719 136.109375 11.890625 134.734375 11.890625 133.039062 L 11.890625 119.964844 L 0 119.964844 L 0 145.957031 L 78.550781 145.957031 L 78.550781 119.964844 Z M 78.554688 119.964844 " fill-opacity="1" fill-rule="nonzero"/>
  <path 
  class="tower-second-floor-top"
  fill="#000" d="M 239.226562 113.820312 L 259.160156 113.820312 L 259.160156 79.238281 L 248.890625 79.238281 L 248.890625 90.707031 C 248.890625 92.402344 247.515625 93.777344 245.816406 93.777344 L 229.394531 93.777344 C 227.695312 93.777344 226.039062 92.402344 226.039062 90.707031 L 226.039062 79.238281 L 215.765625 79.238281 L 215.765625 90.707031 C 215.765625 92.402344 214.390625 93.777344 212.691406 93.777344 L 195.988281 93.777344 C 194.285156 93.777344 192.628906 92.402344 192.628906 90.707031 L 192.628906 79.238281 L 182.359375 79.238281 L 182.359375 90.707031 C 182.359375 92.402344 180.984375 93.777344 179.285156 93.777344 L 162.582031 93.777344 C 160.882812 93.777344 159.222656 92.402344 159.222656 90.707031 L 159.222656 79.238281 L 148.949219 79.238281 L 148.949219 90.707031 C 148.949219 92.402344 147.574219 93.777344 145.875 93.777344 L 129.171875 93.777344 C 127.472656 93.777344 126.097656 92.402344 126.097656 90.707031 L 126.097656 79.238281 L 115.824219 79.238281 L 115.824219 113.820312 Z M 239.226562 113.820312 " fill-opacity="1" fill-rule="nonzero"/>
  <path 
  class="tower-door"
  fill="#000" d="M 193.453125 252.378906 L 181.550781 252.378906 C 161.203125 252.378906 144.648438 268.921875 144.648438 289.257812 L 144.648438 361.6875 L 230.355469 361.6875 L 230.355469 289.257812 C 230.351562 268.921875 213.800781 252.378906 193.453125 252.378906 Z M 193.453125 252.378906 " fill-opacity="1" fill-rule="nonzero"/>
  <path 
  class="tower-flag"
  fill="#000000" d="M 215.226562 29.703125 L 190.574219 17.90625 L 190.574219 13.058594 L 184.425781 13.058594 L 184.425781 74.5 L 190.574219 74.5 L 190.574219 42.21875 Z M 215.226562 29.703125 " fill-opacity="1" fill-rule="nonzero"/>
  <path 
  class="tower-left-top"
  fill="#000" d="M 363.109375 119.964844 L 363.109375 133.039062 C 363.109375 134.734375 361.738281 136.109375 360.035156 136.109375 L 344.507812 136.109375 C 342.808594 136.109375 341.433594 134.734375 341.433594 133.039062 L 341.433594 119.964844 L 330.011719 119.964844 L 330.011719 133.039062 C 330.011719 134.734375 328.636719 136.109375 326.9375 136.109375 L 311.410156 136.109375 C 309.710938 136.109375 308.335938 134.734375 308.335938 133.039062 L 308.335938 119.964844 L 296.445312 119.964844 L 296.445312 145.957031 L 375 145.957031 L 375 119.964844 Z M 363.109375 119.964844 " fill-opacity="1" fill-rule="nonzero"/>
  <path 
  class="tower-left"
  fill="#000" d="M 308.449219 177.910156 L 308.449219 361.6875 L 363 361.6875 L 363 152.101562 L 308.449219 152.101562 Z M 321.21875 190.453125 C 321.21875 183.484375 326.871094 177.835938 333.84375 177.835938 L 337.601562 177.835938 C 344.574219 177.835938 350.226562 183.484375 350.226562 190.453125 L 350.226562 213.839844 L 321.21875 213.839844 Z M 321.21875 261.921875 C 321.21875 254.953125 326.871094 249.304688 333.84375 249.304688 L 337.601562 249.304688 C 344.574219 249.304688 350.226562 254.953125 350.226562 261.921875 L 350.226562 285.308594 L 321.21875 285.308594 Z M 321.21875 261.921875 " fill-opacity="1" fill-rule="nonzero"/>
  <path 
  class="tower-body"
  fill="#000" d="M 72.699219 361.6875 L 138.496094 361.6875 L 138.496094 289.257812 C 138.496094 265.53125 157.808594 246.234375 181.546875 246.234375 L 193.449219 246.234375 C 217.191406 246.234375 236.5 265.53125 236.5 289.257812 L 236.5 361.6875 L 302.300781 361.6875 L 302.300781 206.003906 L 72.699219 206.003906 Z M 72.699219 361.6875 " fill-opacity="1" fill-rule="nonzero"/>
  <path 
  class="tower-body-top"
  fill="#000" d="M 283.683594 190.421875 C 283.683594 192.117188 282.308594 193.492188 280.609375 193.492188 L 259.921875 193.492188 C 258.222656 193.492188 256.847656 192.117188 256.847656 190.421875 L 256.847656 180.980469 L 242.304688 180.980469 L 242.304688 190.421875 C 242.304688 192.117188 240.929688 193.492188 239.230469 193.492188 L 218.542969 193.492188 C 216.84375 193.492188 215.46875 192.117188 215.46875 190.421875 L 215.46875 180.980469 L 200.925781 180.980469 L 200.925781 190.421875 C 200.925781 192.117188 199.550781 193.492188 197.851562 193.492188 L 177.160156 193.492188 C 175.460938 193.492188 174.085938 192.117188 174.085938 190.421875 L 174.085938 180.980469 L 159.542969 180.980469 L 159.542969 190.421875 C 159.542969 192.117188 158.171875 193.492188 156.46875 193.492188 L 135.78125 193.492188 C 134.082031 193.492188 132.707031 192.117188 132.707031 190.421875 L 132.707031 180.980469 L 118.164062 180.980469 L 118.164062 190.421875 C 118.164062 192.117188 116.789062 193.492188 115.089844 193.492188 L 94.402344 193.492188 C 92.703125 193.492188 91.328125 192.117188 91.328125 190.421875 L 91.328125 180.980469 L 72.710938 180.980469 L 72.710938 199.859375 L 302.3125 199.859375 L 302.3125 180.980469 L 283.695312 180.980469 L 283.695312 190.421875 Z M 283.683594 190.421875 " fill-opacity="1" fill-rule="nonzero"/>
</svg>