<svg class="icon icon-library"
xmlns="http://www.w3.org/2000/svg" 
xmlns:xlink="http://www.w3.org/1999/xlink" 
width="500" 
viewBox="0 0 375 375" 
height="500">
  <defs>
    <clipPath id="cbfe5ab01a">
      <path d="M 1 192 L 367 192 L 367 349.265625 L 1 349.265625 Z M 1 192 " clip-rule="nonzero"/>
    </clipPath>
    <clipPath id="b3cc06e9b4">
      <path d="M 48 26.015625 L 363 26.015625 L 363 158 L 48 158 Z M 48 26.015625 " clip-rule="nonzero"/>
    </clipPath>
  </defs>
  <path fill="#fdecd4" d="M 362.828125 215.578125 C 362.828125 215.578125 362.789062 241.976562 359.976562 245.726562 C 357.160156 249.476562 299.257812 340.246094 294.875 340.246094 C 290.488281 340.246094 285.484375 343.378906 285.484375 331.792969 C 285.484375 320.207031 302.46875 266.167969 362.828125 215.570312 Z M 362.828125 215.578125 " fill-opacity="1" fill-rule="nonzero"/>
  <g clip-path="url(#cbfe5ab01a)">
    <path class ="book-five-lowest"
    fill="#9d1415" d="M 366.546875 211.296875 L 61.078125 192.417969 C 61.078125 192.417969 5.050781 237.898438 2.550781 245.726562 C 0.046875 253.554688 3.179688 280.15625 8.5 283.597656 C 13.820312 287.039062 296.125 349.007812 298.316406 349.007812 C 300.503906 349.007812 367.792969 244.472656 366.546875 243.0625 C 365.304688 241.652344 363.734375 236.328125 353.71875 249.167969 C 343.703125 261.996094 293.3125 340.554688 293.003906 338.058594 C 292.691406 335.558594 297.578125 308.320312 300.605469 302.691406 C 303.644531 297.0625 372.1875 213.800781 366.546875 211.304688 Z M 366.546875 211.296875 " fill-opacity="1" fill-rule="nonzero"/>
  </g>
  <path class="book-five-lines" fill="#ffffff" d="M 32.28125 289.15625 C 31.84375 289.15625 31.421875 288.910156 31.21875 288.488281 C 20.765625 266.636719 27.785156 251.492188 28.085938 250.855469 C 28.363281 250.269531 29.070312 250.023438 29.648438 250.300781 C 30.234375 250.578125 30.480469 251.285156 30.203125 251.863281 C 30.113281 252.054688 23.40625 266.722656 33.335938 287.46875 C 33.613281 288.054688 33.367188 288.75 32.78125 289.03125 C 32.613281 289.109375 32.445312 289.148438 32.273438 289.148438 Z M 32.28125 289.15625 " fill-opacity="1" fill-rule="nonzero"/>
  <path class="book-five-lines" fill="#ffffff" d="M 95.398438 297.601562 C 94.898438 297.601562 94.4375 297.277344 94.28125 296.777344 C 87.53125 275.265625 95.789062 259.691406 96.144531 259.039062 C 96.453125 258.46875 97.167969 258.261719 97.738281 258.570312 C 98.308594 258.882812 98.515625 259.59375 98.207031 260.164062 C 98.125 260.316406 90.085938 275.566406 96.515625 296.078125 C 96.707031 296.695312 96.367188 297.355469 95.746094 297.554688 C 95.628906 297.59375 95.511719 297.609375 95.398438 297.609375 Z M 95.398438 297.601562 " fill-opacity="1" fill-rule="nonzero"/>
  <path class="book-five-lines" fill="#ffffff" d="M 205.546875 326.082031 C 205.039062 326.082031 204.582031 325.757812 204.421875 325.25 C 199.542969 309.089844 206.769531 289.933594 207.078125 289.125 C 207.308594 288.523438 207.988281 288.210938 208.59375 288.449219 C 209.195312 288.679688 209.496094 289.363281 209.265625 289.964844 C 209.195312 290.15625 202.027344 309.1875 206.664062 324.570312 C 206.855469 325.1875 206.5 325.847656 205.878906 326.027344 C 205.769531 326.058594 205.652344 326.074219 205.539062 326.074219 Z M 205.546875 326.082031 " fill-opacity="1" fill-rule="nonzero"/>
  <path class="book-five-lines" fill="#ffffff" d="M 231.851562 330.984375 C 231.34375 330.984375 230.882812 330.660156 230.722656 330.152344 C 225.847656 313.992188 233.070312 294.832031 233.378906 294.023438 C 233.609375 293.421875 234.292969 293.113281 234.894531 293.351562 C 235.496094 293.582031 235.796875 294.261719 235.570312 294.867188 C 235.496094 295.054688 228.328125 314.085938 232.96875 329.46875 C 233.15625 330.089844 232.800781 330.746094 232.183594 330.929688 C 232.070312 330.960938 231.953125 330.976562 231.84375 330.976562 Z M 231.851562 330.984375 " fill-opacity="1" fill-rule="nonzero"/>
  <path class="book-five-lines" fill="#ffffff" d="M 254.402344 337.105469 C 253.894531 337.105469 253.433594 336.78125 253.273438 336.273438 C 248.398438 320.113281 255.613281 300.957031 255.929688 300.148438 C 256.160156 299.542969 256.84375 299.234375 257.445312 299.472656 C 258.046875 299.703125 258.351562 300.382812 258.121094 300.988281 C 258.046875 301.175781 250.878906 320.207031 255.519531 335.589844 C 255.710938 336.210938 255.351562 336.867188 254.734375 337.050781 C 254.625 337.082031 254.503906 337.097656 254.394531 337.097656 Z M 254.402344 337.105469 " fill-opacity="1" fill-rule="nonzero"/>
  <path class="book-five-lines" fill="#ffffff" d="M 300.597656 303.867188 C 300.519531 303.867188 300.441406 303.867188 300.359375 303.839844 L 116.023438 266.40625 C 115.390625 266.28125 114.976562 265.660156 115.105469 265.019531 C 115.230469 264.382812 115.847656 263.972656 116.492188 264.097656 L 300.828125 301.535156 C 301.460938 301.660156 301.875 302.28125 301.75 302.914062 C 301.636719 303.46875 301.144531 303.859375 300.597656 303.859375 Z M 300.597656 303.867188 " fill-opacity="1" fill-rule="nonzero"/>
  <path class="book-four" 
  fill="#24493f" d="M 329.507812 272.09375 C 325.210938 282.328125 321.824219 289.457031 320.851562 289.542969 C 317.410156 289.855469 21.011719 258.875 12.875 253.863281 C 4.742188 248.851562 5.28125 220.375 5.28125 220.375 L 32.28125 196.585938 C 32.28125 196.585938 353.082031 195.652344 355.273438 198.777344 C 356.84375 201.011719 340.300781 246.351562 329.5 272.085938 Z M 329.507812 272.09375 " fill-opacity="1" fill-rule="nonzero"/>
  <path class="book-four-lines" fill="#ffffff" d="M 56.386719 255.035156 C 55.925781 255.035156 55.496094 254.765625 55.308594 254.320312 C 51.761719 245.957031 55.09375 228.210938 55.234375 227.457031 C 55.355469 226.824219 55.972656 226.402344 56.609375 226.519531 C 57.242188 226.640625 57.664062 227.257812 57.542969 227.894531 C 57.511719 228.066406 54.203125 245.6875 57.472656 253.402344 C 57.726562 253.996094 57.449219 254.6875 56.84375 254.941406 C 56.695312 255.003906 56.542969 255.035156 56.386719 255.035156 Z M 56.386719 255.035156 " fill-opacity="1" fill-rule="nonzero"/>
  <path class="book-four-lines" fill="#ffffff" d="M 107.714844 258.792969 C 107.214844 258.792969 106.753906 258.46875 106.59375 257.96875 C 103.390625 247.707031 107.976562 234.03125 108.171875 233.453125 C 108.378906 232.839844 109.046875 232.507812 109.664062 232.722656 C 110.273438 232.929688 110.609375 233.59375 110.394531 234.210938 C 110.347656 234.347656 105.859375 247.75 108.839844 257.273438 C 109.03125 257.890625 108.6875 258.546875 108.070312 258.738281 C 107.953125 258.777344 107.832031 258.792969 107.722656 258.792969 Z M 107.714844 258.792969 " fill-opacity="1" fill-rule="nonzero"/>
  <path class="book-four-lines" fill="#ffffff" d="M 194.714844 268.183594 C 194.238281 268.183594 193.789062 267.890625 193.613281 267.414062 C 191.355469 261.269531 193.453125 243.671875 193.550781 242.925781 C 193.628906 242.285156 194.207031 241.824219 194.859375 241.90625 C 195.5 241.984375 195.960938 242.570312 195.882812 243.210938 C 195.859375 243.386719 193.75 260.992188 195.816406 266.605469 C 196.039062 267.214844 195.730469 267.890625 195.121094 268.113281 C 194.984375 268.160156 194.851562 268.183594 194.714844 268.183594 Z M 194.714844 268.183594 " fill-opacity="1" fill-rule="nonzero"/>
  <path class="book-four-lines" fill="#ffffff" d="M 249.492188 275.691406 C 249.03125 275.691406 248.597656 275.421875 248.40625 274.96875 C 244.542969 265.636719 248.199219 251.648438 248.359375 251.054688 C 248.527344 250.429688 249.167969 250.054688 249.792969 250.222656 C 250.421875 250.390625 250.792969 251.03125 250.625 251.65625 C 250.585938 251.792969 247.019531 265.472656 250.578125 274.066406 C 250.824219 274.667969 250.539062 275.351562 249.945312 275.597656 C 249.792969 275.660156 249.644531 275.683594 249.492188 275.683594 Z M 249.492188 275.691406 " fill-opacity="1" fill-rule="nonzero"/>
  <path class="book-four-lines" fill="#ffffff" d="M 244.171875 244.242188 C 244.171875 244.242188 244.09375 244.242188 244.0625 244.242188 L 12.140625 221.859375 C 11.496094 221.796875 11.019531 221.222656 11.085938 220.574219 C 11.148438 219.933594 11.71875 219.457031 12.367188 219.519531 L 244.28125 241.894531 C 244.925781 241.960938 245.402344 242.53125 245.335938 243.179688 C 245.28125 243.792969 244.765625 244.242188 244.171875 244.242188 Z M 244.171875 244.242188 " fill-opacity="1" fill-rule="nonzero"/>
  <path class="book-four-pages" 
  fill="#fdecd4" d="M 339.628906 220.691406 C 339.628906 220.691406 322.414062 255.433594 322.730469 260.445312 C 323.039062 265.453125 327.734375 269.207031 331.175781 257.628906 C 334.617188 246.050781 348.953125 204.523438 348.953125 204.523438 C 348.953125 204.523438 342.132812 211.304688 339.628906 220.691406 Z M 339.628906 220.691406 " fill-opacity="1" fill-rule="nonzero"/>
  <path class="book-three-pages" 
  fill="#fdecd4" d="M 368.53125 153.886719 C 368.53125 153.886719 371.171875 177.253906 370.203125 179.0625 C 369.234375 180.871094 307.609375 246.382812 301.90625 245.550781 C 296.207031 244.71875 296.339844 223.292969 298.011719 219.121094 C 299.6875 214.953125 368.539062 153.886719 368.539062 153.886719 Z M 368.53125 153.886719 " fill-opacity="1" fill-rule="nonzero"/>
  <path class="book-three"
  fill="#335c76" d="M 338.066406 144.933594 L 374.992188 151.808594 C 374.992188 151.808594 364.359375 163.996094 356.523438 171.539062 C 348.691406 179.078125 304.878906 216.933594 302.691406 223.199219 C 300.503906 229.453125 300.1875 241.039062 302.691406 241.976562 C 305.199219 242.910156 369.355469 174.058594 371.859375 173.742188 C 374.367188 173.425781 374.675781 180.316406 370.300781 184.691406 C 365.921875 189.070312 305.515625 253.863281 298.316406 253.863281 C 291.113281 253.863281 16.945312 205.039062 11.625 201.597656 C 6.304688 198.15625 3.171875 175.90625 6.929688 171.539062 C 10.6875 167.167969 36.664062 155.574219 36.664062 155.574219 Z M 338.066406 144.933594 " fill-opacity="1" fill-rule="nonzero"/>
  <path class="book-three-lines" fill="#ffffff" d="M 292.996094 216.75 C 292.929688 216.75 292.867188 216.75 292.804688 216.734375 L 116.070312 187.523438 C 115.429688 187.421875 115 186.808594 115.105469 186.175781 C 115.207031 185.535156 115.808594 185.105469 116.453125 185.207031 L 293.183594 214.421875 C 293.828125 214.523438 294.253906 215.132812 294.152344 215.769531 C 294.058594 216.339844 293.558594 216.75 292.996094 216.75 Z M 292.996094 216.75 " fill-opacity="1" fill-rule="nonzero"/>
  <path class="book-three-lines" fill="#ffffff" d="M 228.941406 240.328125 C 228.464844 240.328125 228.011719 240.03125 227.835938 239.558594 C 224.222656 229.78125 227.632812 209.550781 227.78125 208.695312 C 227.894531 208.054688 228.503906 207.632812 229.136719 207.734375 C 229.78125 207.847656 230.207031 208.449219 230.097656 209.09375 C 230.066406 209.296875 226.648438 229.550781 230.042969 238.742188 C 230.265625 239.351562 229.953125 240.023438 229.34375 240.246094 C 229.210938 240.292969 229.074219 240.320312 228.941406 240.320312 Z M 228.941406 240.328125 " fill-opacity="1" fill-rule="nonzero"/>
  <path class="book-three-lines" fill="#ffffff" d="M 176.144531 228.851562 C 175.683594 228.851562 175.25 228.582031 175.058594 228.128906 C 170.785156 217.878906 174.828125 201.382812 175.003906 200.6875 C 175.160156 200.058594 175.796875 199.679688 176.421875 199.832031 C 177.050781 199.988281 177.4375 200.625 177.277344 201.25 C 177.238281 201.417969 173.25 217.6875 177.222656 227.21875 C 177.46875 227.8125 177.191406 228.503906 176.589844 228.757812 C 176.4375 228.820312 176.289062 228.84375 176.136719 228.84375 Z M 176.144531 228.851562 " fill-opacity="1" fill-rule="nonzero"/>
  <path class="book-three-lines" fill="#ffffff" d="M 97.070312 214.246094 C 96.605469 214.246094 96.160156 213.960938 95.976562 213.5 C 95.769531 212.976562 91.078125 200.550781 97.878906 185.875 C 98.148438 185.289062 98.847656 185.035156 99.441406 185.304688 C 100.03125 185.574219 100.285156 186.269531 100.015625 186.867188 C 93.621094 200.648438 98.117188 212.535156 98.167969 212.652344 C 98.402344 213.253906 98.101562 213.9375 97.5 214.175781 C 97.355469 214.230469 97.214844 214.253906 97.070312 214.253906 Z M 97.070312 214.246094 " fill-opacity="1" fill-rule="nonzero"/>
  <path class="book-three-lines" fill="#ffffff" d="M 52 205.691406 C 51.613281 205.691406 51.222656 205.492188 51 205.136719 C 45.554688 196.421875 50.660156 180.609375 50.882812 179.941406 C 51.089844 179.324219 51.746094 178.992188 52.367188 179.199219 C 52.984375 179.394531 53.316406 180.0625 53.109375 180.679688 C 53.0625 180.832031 48.132812 196.121094 52.992188 203.898438 C 53.332031 204.445312 53.167969 205.175781 52.617188 205.515625 C 52.429688 205.632812 52.207031 205.699219 52 205.699219 Z M 52 205.691406 " fill-opacity="1" fill-rule="nonzero"/>
  <path class="book-two"
  fill="#5a5776" d="M 67.960938 101.441406 C 67.960938 101.441406 22.265625 132.429688 21.011719 137.125 C 19.757812 141.816406 22.265625 179.6875 26.640625 184.382812 C 31.019531 189.078125 338.683594 198.785156 344.003906 198.785156 C 349.324219 198.785156 349.953125 162.164062 347.761719 150.113281 C 345.574219 138.058594 339.9375 119.28125 339.9375 119.28125 L 67.953125 101.441406 Z M 67.960938 101.441406 " fill-opacity="1" fill-rule="nonzero"/>
  <path class="book-two-lines" fill="#ffffff" d="M 344.949219 152.984375 C 344.949219 152.984375 344.917969 152.984375 344.894531 152.984375 L 32.222656 139.242188 C 31.574219 139.210938 31.074219 138.664062 31.105469 138.019531 C 31.136719 137.378906 31.683594 136.871094 32.328125 136.902344 L 344.996094 150.644531 C 345.644531 150.675781 346.144531 151.222656 346.113281 151.863281 C 346.089844 152.492188 345.566406 152.992188 344.941406 152.992188 Z M 344.949219 152.984375 " fill-opacity="1" fill-rule="nonzero"/>
  <path class="book-two-lines" fill="#ffffff" d="M 82.363281 181.488281 C 81.917969 181.488281 81.5 181.242188 81.300781 180.816406 C 77.058594 171.808594 81.039062 149.144531 81.203125 148.183594 C 81.316406 147.550781 81.925781 147.121094 82.570312 147.234375 C 83.203125 147.34375 83.632812 147.957031 83.519531 148.597656 C 83.480469 148.828125 79.5 171.480469 83.425781 179.816406 C 83.703125 180.402344 83.449219 181.101562 82.863281 181.378906 C 82.703125 181.457031 82.527344 181.488281 82.363281 181.488281 Z M 82.363281 181.488281 " fill-opacity="1" fill-rule="nonzero"/>
  <path class="book-two-lines" fill="#ffffff" d="M 141.105469 181.488281 C 140.660156 181.488281 140.238281 181.242188 140.042969 180.816406 C 135.800781 171.808594 139.78125 149.144531 139.945312 148.183594 C 140.058594 147.550781 140.667969 147.121094 141.3125 147.234375 C 141.953125 147.34375 142.375 147.957031 142.261719 148.597656 C 142.222656 148.828125 138.242188 171.480469 142.167969 179.816406 C 142.445312 180.402344 142.191406 181.101562 141.605469 181.378906 C 141.445312 181.457031 141.269531 181.488281 141.105469 181.488281 Z M 141.105469 181.488281 " fill-opacity="1" fill-rule="nonzero"/>
  <path class="book-two-lines" fill="#ffffff" d="M 201.503906 188.671875 C 201.058594 188.671875 200.640625 188.429688 200.441406 188 C 196.199219 178.992188 200.179688 156.328125 200.347656 155.371094 C 200.457031 154.734375 201.066406 154.308594 201.710938 154.417969 C 202.34375 154.527344 202.773438 155.140625 202.660156 155.78125 C 202.621094 156.011719 198.640625 178.667969 202.566406 187 C 202.84375 187.585938 202.589844 188.285156 202.003906 188.5625 C 201.84375 188.640625 201.671875 188.671875 201.503906 188.671875 Z M 201.503906 188.671875 " fill-opacity="1" fill-rule="nonzero"/>
  <path class="book-two-lines" fill="#ffffff" d="M 267.929688 193.382812 C 267.484375 193.382812 267.066406 193.136719 266.867188 192.710938 C 262.625 183.703125 266.605469 161.039062 266.769531 160.078125 C 266.882812 159.445312 267.492188 159.015625 268.136719 159.128906 C 268.769531 159.238281 269.199219 159.851562 269.085938 160.492188 C 269.046875 160.722656 265.066406 183.375 268.992188 191.710938 C 269.269531 192.296875 269.015625 192.996094 268.429688 193.273438 C 268.269531 193.351562 268.09375 193.382812 267.929688 193.382812 Z M 267.929688 193.382812 " fill-opacity="1" fill-rule="nonzero"/>
  <path class="book-one-pages" 
  fill="#fdecd4" d="M 355.28125 64.511719 C 355.28125 64.511719 355.28125 123.042969 353.402344 123.976562 C 351.523438 124.914062 257.945312 159.96875 250.121094 149.644531 C 242.292969 139.3125 247.304688 102.074219 250.121094 95.8125 C 252.933594 89.546875 350.269531 64.511719 355.28125 64.511719 Z M 355.28125 64.511719 " fill-opacity="1" fill-rule="nonzero"/>
  <g clip-path="url(#b3cc06e9b4)">
    <path class="book-one-top"
    fill="#9d1415" d="M 358.929688 60.746094 L 164.988281 26.015625 C 164.988281 26.015625 59.199219 53.246094 55.132812 54.179688 C 51.066406 55.117188 41.984375 90.492188 55.132812 102.066406 C 68.28125 113.644531 239.476562 157.78125 250.429688 157.78125 C 261.378906 157.78125 354.335938 130.550781 359.03125 126.792969 C 363.726562 123.03125 362.164062 117.085938 359.339844 116.460938 C 356.515625 115.832031 343.070312 125.847656 328.351562 130.234375 C 313.640625 134.617188 257.929688 150.890625 254.488281 147.757812 C 251.046875 144.625 251.984375 103.628906 255.113281 101.433594 C 258.246094 99.246094 344.3125 69.199219 349.945312 68.882812 C 354.367188 68.636719 361.117188 71.09375 362.589844 66.695312 C 363.480469 64.039062 361.671875 61.230469 358.914062 60.730469 Z M 358.929688 60.746094 " fill-opacity="1" fill-rule="nonzero"/>
  </g>
  <path class="lines" fill="#fdecd4" d="M 242.292969 96.984375 C 242.214844 96.984375 242.132812 96.976562 242.046875 96.960938 L 60.835938 58.773438 C 60.199219 58.636719 59.796875 58.019531 59.929688 57.382812 C 60.066406 56.75 60.683594 56.347656 61.316406 56.480469 L 242.53125 94.660156 C 243.164062 94.796875 243.570312 95.414062 243.433594 96.050781 C 243.316406 96.605469 242.832031 96.984375 242.285156 96.984375 Z M 242.292969 96.984375 " fill-opacity="1" fill-rule="nonzero"/>
</svg>