<svg class="icon icon-logout"
xmlns="http://www.w3.org/2000/svg" 
width="320" 
viewBox="0 0 375 375" 
height="320">
  <defs>
    <clipPath id="1e8fcc1fed">
      <path d="M 11.195312 11.195312 L 363.695312 11.195312 L 363.695312 363.695312 L 11.195312 363.695312 Z M 11.195312 11.195312 " clip-rule="nonzero"/>
    </clipPath>
  </defs>
  <g clip-path="url(#1e8fcc1fed)">
    <path class="icon-body"
     fill="#000000" 
     d="M 187.457031 11.195312 C 90.109375 11.195312 11.195312 90.109375 11.195312 187.457031 C 11.195312 284.804688 90.109375 363.722656 187.457031 363.722656 C 284.804688 363.722656 363.722656 284.804688 363.722656 187.457031 C 363.722656 90.109375 284.804688 11.195312 187.457031 11.195312 Z M 239.511719 259.027344 C 239.511719 266.667969 233.300781 272.871094 225.644531 272.871094 L 109.175781 272.871094 C 101.519531 272.871094 95.308594 266.675781 95.308594 259.027344 L 95.308594 115.882812 C 95.308594 108.242188 101.519531 102.039062 109.175781 102.039062 L 225.660156 102.039062 C 233.316406 102.039062 239.519531 108.242188 239.519531 115.882812 L 239.519531 147.570312 L 221.050781 147.570312 L 221.050781 127.082031 C 221.050781 123.40625 218.070312 120.429688 214.398438 120.429688 L 120.421875 120.429688 C 116.746094 120.429688 113.769531 123.40625 113.769531 127.082031 L 113.769531 247.777344 C 113.769531 251.453125 116.746094 254.429688 120.421875 254.429688 L 214.398438 254.429688 C 218.070312 254.429688 221.050781 251.453125 221.050781 247.777344 L 221.050781 227.289062 L 239.519531 227.289062 L 239.519531 259.03125 Z M 322.5625 191.917969 L 259.308594 239.835938 C 258.332031 240.570312 257.136719 240.972656 255.90625 240.972656 C 252.796875 240.972656 250.273438 238.449219 250.273438 235.339844 L 250.273438 212.4375 L 159.957031 212.4375 C 156.78125 212.4375 154.210938 209.59375 154.210938 206.082031 L 154.210938 168.722656 C 154.210938 165.210938 156.78125 162.367188 159.957031 162.367188 L 250.273438 162.367188 L 250.273438 139.519531 C 250.273438 138.300781 250.671875 137.105469 251.410156 136.128906 C 252.351562 134.886719 253.699219 134.148438 255.128906 133.949219 C 256.554688 133.753906 258.054688 134.097656 259.300781 135.039062 L 322.558594 182.949219 C 322.972656 183.257812 323.335938 183.628906 323.644531 184.035156 C 325.523438 186.515625 325.035156 190.050781 322.558594 191.925781 Z M 322.5625 191.917969 " fill-opacity="1" fill-rule="nonzero"/>
  </g>
</svg>