<svg
  class="icon icon-messages"
  xmlns="http://www.w3.org/2000/svg"
  viewBox="0 0 375 375"
  width="320"
  height="320"
>
  <defs>
    <clipPath id="4a500821f9">
      <path
        d="M 1 30.15625 L 375 30.15625 L 375 336 L 1 336 Z M 1 30.15625 "
        clip-rule="nonzero"/>
    </clipPath>
  </defs>
  <g clip-path="url(#4a500821f9)">
    <path
      class="icon-path"
      fill="#ffffff"
      fill-opacity="1"
      fill-rule="nonzero"
      d="M 300.851562 335.363281 C 301.070312 335.511719 301.289062 335.730469 301.507812 335.878906 L 85.582031 335.878906 C 69.605469 335.878906 56.710938 322.976562 56.710938 307.066406 L 56.710938 295.703125 C 56.710938 295.703125 287.734375 295.703125 287.734375 295.703125 C 287.367188 295.703125 287.953125 310.292969 288.101562 311.683594 C 289.273438 320.847656 293.816406 329.351562 300.851562 335.363281 Z M 346.132812 30.175781 C 344.738281 30.175781 343.347656 30.542969 342.027344 31.054688 C 341.222656 31.421875 340.417969 31.863281 339.757812 32.449219 C 339.683594 32.519531 339.683594 32.519531 339.609375 32.59375 C 338.292969 33.695312 337.339844 35.160156 336.605469 36.847656 C 336.460938 37.285156 336.3125 37.726562 336.167969 38.238281 C 335.800781 39.707031 335.507812 41.320312 335.214844 42.929688 C 334.628906 45.71875 334.1875 48.355469 333.75 50.996094 C 333.164062 54.660156 332.648438 58.328125 332.28125 61.992188 C 332.28125 62.285156 332.210938 62.578125 332.210938 62.945312 C 331.988281 65.4375 331.769531 67.929688 331.625 70.421875 L 375 70.421875 L 375 58.914062 C 375 43.078125 362.105469 30.175781 346.132812 30.175781 Z M 333.601562 183.90625 C 341.074219 225.984375 348.769531 269.53125 341.660156 314.910156 C 340.34375 323.121094 334.921875 330.085938 327.59375 333.605469 C 319.167969 337.636719 309.640625 332.945312 303.78125 326.492188 C 303.632812 326.347656 303.5625 326.273438 303.414062 326.128906 C 298.871094 320.996094 296.085938 314.25 296.085938 306.992188 L 296.085938 291.523438 C 296.085938 290.351562 295.648438 289.324219 294.914062 288.59375 C 294.183594 287.859375 293.15625 287.417969 291.984375 287.417969 L 113.714844 287.417969 C 113.789062 283.242188 113.277344 276.277344 112.03125 264.179688 C 108.660156 231.996094 101.332031 180.972656 98.914062 164.1875 L 98.257812 159.566406 C 93.421875 130.097656 89.316406 98.207031 92.542969 64.996094 C 94.445312 45.128906 111.003906 30.25 131.082031 30.25 C 131.082031 30.25 330.746094 30.25 330.816406 30.25 C 330.453125 30.25 327.667969 38.167969 327.59375 38.679688 C 324.734375 50.261719 323.785156 62.578125 323.125 74.453125 C 320.925781 112.210938 327.375 148.644531 333.601562 183.90625 Z M 118.113281 83.617188 C 118.113281 85.890625 119.945312 87.796875 122.289062 87.796875 C 127.492188 87.796875 130.277344 85.304688 132.328125 83.546875 C 133.9375 82.152344 134.816406 81.34375 136.871094 81.34375 C 138.921875 81.34375 139.726562 82.078125 141.414062 83.546875 C 143.464844 85.304688 146.25 87.796875 151.449219 87.796875 C 156.652344 87.796875 159.4375 85.304688 161.488281 83.546875 C 163.175781 82.152344 163.980469 81.34375 166.03125 81.34375 C 168.082031 81.34375 168.960938 82.078125 170.574219 83.546875 C 172.625 85.304688 175.410156 87.796875 180.613281 87.796875 C 185.816406 87.796875 188.597656 85.304688 190.652344 83.546875 C 192.335938 82.152344 193.140625 81.34375 195.195312 81.34375 C 197.246094 81.34375 198.050781 82.078125 199.734375 83.546875 C 201.789062 85.304688 204.5 87.796875 209.773438 87.796875 C 214.976562 87.796875 217.761719 85.304688 219.8125 83.546875 C 221.425781 82.152344 222.304688 81.34375 224.355469 81.34375 C 226.40625 81.34375 227.210938 82.078125 228.898438 83.546875 C 230.875 85.304688 233.660156 87.796875 238.9375 87.796875 C 244.136719 87.796875 246.921875 85.304688 248.972656 83.546875 C 250.585938 82.152344 251.464844 81.34375 253.515625 81.34375 C 255.570312 81.34375 256.375 82.078125 257.988281 83.546875 C 260.039062 85.304688 262.824219 87.796875 268.023438 87.796875 C 273.226562 87.796875 276.011719 85.304688 278.0625 83.546875 C 279.746094 82.152344 280.554688 81.34375 282.605469 81.34375 C 284.878906 81.34375 286.78125 79.511719 286.78125 77.167969 C 286.78125 74.894531 284.878906 72.988281 282.605469 72.988281 C 277.402344 72.988281 274.617188 75.480469 272.566406 77.242188 C 270.957031 78.632812 270.078125 79.441406 268.097656 79.441406 C 266.046875 79.441406 265.167969 78.707031 263.554688 77.242188 C 261.503906 75.480469 258.71875 72.988281 253.515625 72.988281 C 248.316406 72.988281 245.53125 75.480469 243.480469 77.242188 C 241.867188 78.632812 240.988281 79.441406 238.9375 79.441406 C 236.882812 79.441406 236.078125 78.707031 234.464844 77.242188 C 232.414062 75.480469 229.628906 72.988281 224.429688 72.988281 C 219.226562 72.988281 216.441406 75.480469 214.390625 77.242188 C 212.777344 78.632812 211.898438 79.441406 209.847656 79.441406 C 207.796875 79.441406 206.988281 78.707031 205.378906 77.242188 C 203.328125 75.480469 200.542969 72.988281 195.339844 72.988281 C 190.136719 72.988281 187.351562 75.480469 185.300781 77.242188 C 183.691406 78.632812 182.8125 79.441406 180.832031 79.441406 C 178.78125 79.441406 177.902344 78.707031 176.289062 77.242188 C 174.238281 75.480469 171.453125 72.988281 166.25 72.988281 C 161.050781 72.988281 158.265625 75.480469 156.214844 77.242188 C 154.601562 78.632812 153.722656 79.441406 151.742188 79.441406 C 149.691406 79.441406 148.8125 78.707031 147.199219 77.242188 C 145.148438 75.480469 142.363281 72.988281 137.164062 72.988281 C 131.960938 72.988281 129.175781 75.480469 127.125 77.242188 C 125.441406 78.632812 124.632812 79.441406 122.582031 79.441406 C 119.945312 79.441406 118.113281 81.34375 118.113281 83.617188 Z M 122.289062 130.316406 C 127.492188 130.316406 130.277344 127.898438 132.328125 126.136719 C 133.9375 124.671875 134.816406 123.9375 136.871094 123.9375 C 138.921875 123.9375 139.726562 124.671875 141.414062 126.136719 C 143.464844 127.898438 146.25 130.316406 151.449219 130.316406 C 156.652344 130.316406 159.4375 127.824219 161.488281 126.136719 C 163.175781 124.671875 163.980469 123.9375 166.03125 123.9375 C 168.082031 123.9375 168.960938 124.671875 170.574219 126.136719 C 172.625 127.898438 175.410156 130.316406 180.613281 130.316406 C 185.816406 130.316406 188.597656 127.824219 190.652344 126.136719 C 192.335938 124.671875 193.140625 123.9375 195.195312 123.9375 C 197.246094 123.9375 198.050781 124.671875 199.734375 126.136719 C 201.789062 127.898438 204.5 130.316406 209.773438 130.316406 C 214.976562 130.316406 217.761719 127.824219 219.8125 126.136719 C 221.425781 124.671875 222.304688 123.9375 224.355469 123.9375 C 226.40625 123.9375 227.210938 124.671875 228.898438 126.136719 C 230.875 127.898438 233.660156 130.316406 238.9375 130.316406 C 244.136719 130.316406 246.921875 127.824219 248.972656 126.136719 C 250.585938 124.671875 251.464844 123.9375 253.515625 123.9375 C 255.570312 123.9375 256.375 124.671875 257.988281 126.136719 C 260.039062 127.898438 262.824219 130.316406 268.023438 130.316406 C 273.226562 130.316406 276.011719 127.824219 278.0625 126.136719 C 279.746094 124.671875 280.554688 123.9375 282.605469 123.9375 C 284.878906 123.9375 286.78125 122.03125 286.78125 119.761719 C 286.78125 117.488281 284.878906 115.582031 282.605469 115.582031 C 277.402344 115.582031 274.617188 118 272.566406 119.761719 C 270.957031 121.226562 270.078125 121.960938 268.097656 121.960938 C 266.046875 121.960938 265.167969 121.226562 263.554688 119.761719 C 261.503906 118 258.71875 115.582031 253.515625 115.582031 C 248.316406 115.582031 245.53125 118 243.480469 119.761719 C 241.867188 121.226562 240.988281 121.960938 238.9375 121.960938 C 236.882812 121.960938 236.078125 121.226562 234.464844 119.761719 C 232.414062 118 229.628906 115.582031 224.429688 115.582031 C 219.226562 115.582031 216.441406 118 214.390625 119.761719 C 212.777344 121.226562 211.898438 121.960938 209.847656 121.960938 C 207.796875 121.960938 206.988281 121.226562 205.378906 119.761719 C 203.328125 118 200.542969 115.582031 195.339844 115.582031 C 190.136719 115.582031 187.351562 118 185.300781 119.761719 C 183.691406 121.226562 182.8125 121.960938 180.832031 121.960938 C 178.78125 121.960938 177.902344 121.226562 176.289062 119.761719 C 174.238281 118 171.453125 115.582031 166.25 115.582031 C 161.050781 115.582031 158.265625 118 156.214844 119.761719 C 154.601562 121.226562 153.722656 121.960938 151.742188 121.960938 C 149.691406 121.960938 148.8125 121.226562 147.199219 119.761719 C 145.148438 118 142.363281 115.582031 137.164062 115.582031 C 131.960938 115.582031 129.175781 118 127.125 119.761719 C 125.441406 121.226562 124.632812 121.960938 122.582031 121.960938 C 120.238281 121.960938 118.40625 123.867188 118.40625 126.136719 C 118.113281 128.410156 119.945312 130.316406 122.289062 130.316406 Z M 132.105469 172.835938 C 137.382812 172.835938 140.09375 170.34375 142.144531 168.585938 C 143.832031 167.191406 144.636719 166.386719 146.761719 166.386719 C 148.8125 166.386719 149.617188 167.117188 151.304688 168.585938 C 153.28125 170.34375 156.066406 172.835938 161.34375 172.835938 C 166.542969 172.835938 169.328125 170.34375 171.378906 168.585938 C 172.992188 167.191406 173.871094 166.386719 175.921875 166.386719 C 177.976562 166.386719 178.78125 167.117188 180.464844 168.585938 C 182.515625 170.34375 185.230469 172.835938 190.503906 172.835938 C 195.707031 172.835938 198.492188 170.34375 200.542969 168.585938 C 202.152344 167.191406 203.035156 166.386719 205.085938 166.386719 C 207.136719 166.386719 207.941406 167.117188 209.554688 168.585938 C 211.605469 170.34375 214.390625 172.835938 219.59375 172.835938 C 224.792969 172.835938 227.578125 170.34375 229.628906 168.585938 C 231.242188 167.191406 232.121094 166.386719 234.171875 166.386719 C 236.226562 166.386719 237.03125 167.117188 238.644531 168.585938 C 240.695312 170.34375 243.480469 172.835938 248.679688 172.835938 C 253.882812 172.835938 256.667969 170.34375 258.71875 168.585938 C 260.332031 167.191406 261.210938 166.386719 263.1875 166.386719 C 265.242188 166.386719 266.121094 167.117188 267.730469 168.585938 C 269.78125 170.34375 272.496094 172.835938 277.769531 172.835938 C 282.972656 172.835938 285.757812 170.34375 287.808594 168.585938 C 289.417969 167.191406 290.300781 166.386719 292.351562 166.386719 C 294.621094 166.386719 296.527344 164.480469 296.527344 162.207031 C 296.527344 159.933594 294.621094 158.027344 292.351562 158.027344 C 287.148438 158.027344 284.363281 160.519531 282.3125 162.28125 C 280.699219 163.671875 279.820312 164.480469 277.769531 164.480469 C 275.71875 164.480469 274.914062 163.746094 273.300781 162.28125 C 271.25 160.519531 268.464844 158.027344 263.261719 158.027344 C 258.058594 158.027344 255.277344 160.519531 253.222656 162.28125 C 251.539062 163.671875 250.734375 164.480469 248.679688 164.480469 C 246.628906 164.480469 245.824219 163.746094 244.136719 162.28125 C 242.085938 160.519531 239.375 158.027344 234.101562 158.027344 C 228.898438 158.027344 226.113281 160.519531 224.0625 162.28125 C 222.449219 163.671875 221.570312 164.480469 219.519531 164.480469 C 217.46875 164.480469 216.660156 163.746094 214.976562 162.28125 C 213 160.519531 210.214844 158.027344 204.9375 158.027344 C 199.734375 158.027344 196.953125 160.519531 194.898438 162.28125 C 193.289062 163.671875 192.410156 164.480469 190.359375 164.480469 C 188.304688 164.480469 187.5 163.746094 185.886719 162.28125 C 183.835938 160.519531 181.050781 158.027344 175.851562 158.027344 C 170.648438 158.027344 167.863281 160.519531 165.8125 162.28125 C 164.199219 163.671875 163.320312 164.480469 161.34375 164.480469 C 159.289062 164.480469 158.410156 163.746094 156.726562 162.28125 C 154.746094 160.519531 151.964844 158.027344 146.6875 158.027344 C 141.414062 158.027344 138.628906 160.519531 136.578125 162.28125 C 134.964844 163.671875 134.085938 164.480469 132.035156 164.480469 C 129.761719 164.480469 127.859375 166.3125 127.859375 168.65625 C 127.929688 170.929688 129.835938 172.835938 132.105469 172.835938 Z M 137.824219 215.355469 C 143.023438 215.355469 145.808594 212.863281 147.859375 211.105469 C 149.472656 209.710938 150.351562 208.976562 152.402344 208.976562 C 154.453125 208.976562 155.335938 209.710938 156.945312 211.105469 C 158.996094 212.863281 161.78125 215.355469 166.984375 215.355469 C 172.1875 215.355469 174.96875 212.863281 177.023438 211.105469 C 178.632812 209.710938 179.511719 208.976562 181.492188 208.976562 C 183.542969 208.976562 184.421875 209.710938 186.035156 211.105469 C 188.085938 212.863281 190.871094 215.355469 196.074219 215.355469 C 201.273438 215.355469 204.058594 212.863281 206.109375 211.105469 C 207.722656 209.710938 208.601562 208.976562 210.582031 208.976562 C 212.632812 208.976562 213.511719 209.710938 215.125 211.105469 C 217.175781 212.863281 219.957031 215.355469 225.160156 215.355469 C 230.363281 215.355469 233.148438 212.863281 235.199219 211.105469 C 236.882812 209.710938 237.691406 208.976562 239.742188 208.976562 C 241.792969 208.976562 242.671875 209.710938 244.285156 211.105469 C 246.335938 212.863281 249.121094 215.355469 254.324219 215.355469 C 259.523438 215.355469 262.308594 212.863281 264.359375 211.105469 C 265.972656 209.710938 266.851562 208.976562 268.902344 208.976562 C 270.957031 208.976562 271.761719 209.710938 273.375 211.105469 C 275.425781 212.863281 278.210938 215.355469 283.410156 215.355469 C 288.613281 215.355469 291.398438 212.863281 293.449219 211.105469 C 295.136719 209.710938 295.941406 208.976562 297.992188 208.976562 C 300.335938 208.976562 302.167969 207.070312 302.167969 204.800781 C 302.167969 202.453125 300.335938 200.621094 297.992188 200.621094 C 292.789062 200.621094 290.007812 203.039062 287.953125 204.800781 C 286.269531 206.265625 285.464844 207 283.410156 207 C 281.359375 207 280.554688 206.265625 278.867188 204.800781 C 276.890625 203.039062 274.105469 200.621094 268.832031 200.621094 C 263.628906 200.621094 260.84375 203.039062 258.792969 204.800781 C 257.179688 206.265625 256.300781 207 254.324219 207 C 252.269531 207 251.390625 206.265625 249.78125 204.800781 C 247.730469 203.039062 244.945312 200.621094 239.742188 200.621094 C 234.539062 200.621094 231.753906 203.039062 229.703125 204.800781 C 228.09375 206.265625 227.210938 207 225.234375 207 C 223.183594 207 222.304688 206.265625 220.691406 204.800781 C 218.640625 203.039062 215.855469 200.621094 210.652344 200.621094 C 205.453125 200.621094 202.667969 203.039062 200.617188 204.800781 C 198.929688 206.265625 198.125 207 196.074219 207 C 194.019531 207 193.140625 206.265625 191.53125 204.800781 C 189.476562 203.039062 186.695312 200.621094 181.492188 200.621094 C 176.289062 200.621094 173.503906 203.039062 171.453125 204.800781 C 169.769531 206.265625 168.960938 207 166.910156 207 C 164.859375 207 163.980469 206.265625 162.367188 204.800781 C 160.316406 203.039062 157.53125 200.621094 152.328125 200.621094 C 147.128906 200.621094 144.34375 203.039062 142.292969 204.800781 C 140.679688 206.265625 139.800781 207 137.75 207 C 135.476562 207 133.574219 208.90625 133.574219 211.175781 C 133.644531 213.449219 135.550781 215.355469 137.824219 215.355469 Z M 310.886719 247.246094 C 310.886719 244.972656 309.054688 243.066406 306.710938 243.066406 C 301.507812 243.066406 298.726562 245.558594 296.671875 247.246094 C 294.988281 248.710938 294.183594 249.445312 292.128906 249.445312 C 290.078125 249.445312 289.273438 248.710938 287.585938 247.246094 C 285.609375 245.488281 282.824219 243.066406 277.550781 243.066406 C 272.347656 243.066406 269.5625 245.558594 267.511719 247.246094 C 265.898438 248.710938 265.019531 249.445312 263.042969 249.445312 C 260.992188 249.445312 260.109375 248.710938 258.5 247.246094 C 256.449219 245.488281 253.664062 243.066406 248.460938 243.066406 C 243.257812 243.066406 240.476562 245.558594 238.421875 247.246094 C 236.8125 248.710938 235.933594 249.445312 233.953125 249.445312 C 231.902344 249.445312 231.023438 248.710938 229.410156 247.246094 C 227.359375 245.488281 224.574219 243.066406 219.371094 243.066406 C 214.171875 243.066406 211.386719 245.558594 209.335938 247.246094 C 207.648438 248.710938 206.84375 249.445312 204.792969 249.445312 C 202.738281 249.445312 201.933594 248.710938 200.25 247.246094 C 198.199219 245.488281 195.488281 243.066406 190.210938 243.066406 C 184.933594 243.066406 182.222656 245.558594 180.171875 247.246094 C 178.488281 248.710938 177.679688 249.445312 175.628906 249.445312 C 173.578125 249.445312 172.699219 248.710938 171.085938 247.246094 C 169.035156 245.488281 166.25 243.066406 161.050781 243.066406 C 155.847656 243.066406 153.0625 245.558594 151.011719 247.246094 C 149.398438 248.710938 148.519531 249.445312 146.46875 249.445312 C 144.195312 249.445312 142.292969 251.351562 142.292969 253.625 C 142.292969 255.96875 144.195312 257.800781 146.46875 257.800781 C 151.671875 257.800781 154.453125 255.382812 156.507812 253.625 C 158.117188 252.15625 158.996094 251.425781 161.050781 251.425781 C 163.101562 251.425781 163.980469 252.15625 165.59375 253.625 C 167.644531 255.382812 170.429688 257.800781 175.628906 257.800781 C 180.832031 257.800781 183.617188 255.382812 185.667969 253.625 C 187.28125 252.15625 188.160156 251.425781 190.210938 251.425781 C 192.261719 251.425781 193.070312 252.15625 194.679688 253.625 C 196.730469 255.382812 199.515625 257.800781 204.71875 257.800781 C 209.921875 257.800781 212.703125 255.382812 214.757812 253.625 C 216.367188 252.15625 217.246094 251.425781 219.226562 251.425781 C 221.277344 251.425781 222.15625 252.15625 223.769531 253.625 C 225.820312 255.382812 228.605469 257.800781 233.808594 257.800781 C 239.007812 257.800781 241.792969 255.382812 243.84375 253.625 C 245.53125 252.15625 246.335938 251.425781 248.386719 251.425781 C 250.441406 251.425781 251.320312 252.15625 252.929688 253.625 C 254.980469 255.382812 257.765625 257.800781 262.96875 257.800781 C 268.171875 257.800781 270.957031 255.382812 273.007812 253.625 C 274.691406 252.15625 275.5 251.425781 277.550781 251.425781 C 279.601562 251.425781 280.40625 252.15625 282.019531 253.625 C 284.070312 255.382812 286.855469 257.800781 292.058594 257.800781 C 297.257812 257.800781 300.042969 255.382812 302.09375 253.625 C 303.707031 252.15625 304.585938 251.425781 306.566406 251.425781 C 309.054688 251.425781 310.886719 249.59375 310.886719 247.246094 Z M 59.933594 230.457031 C 64.039062 243.800781 67.996094 257.289062 71.585938 270.777344 C 72.097656 272.609375 73.785156 273.859375 75.617188 273.859375 C 75.980469 273.859375 76.347656 273.785156 76.714844 273.710938 C 78.914062 273.125 80.230469 270.851562 79.644531 268.578125 C 75.910156 254.503906 71.730469 240.355469 67.410156 226.425781 Z M 56.417969 219.242188 C 49.675781 198.421875 42.128906 177.527344 33.996094 157.074219 C 33.117188 154.949219 34.144531 152.53125 36.34375 151.648438 C 38.46875 150.84375 40.886719 151.871094 41.765625 153.996094 C 49.96875 174.523438 57.519531 195.5625 64.332031 216.457031 C 64.84375 215.429688 65.285156 214.402344 65.722656 213.230469 C 72.976562 193.875 70.414062 155.460938 53.632812 127.164062 C 40.152344 104.511719 19.929688 91.535156 3.808594 84.351562 C 0 104 0.21875 123.277344 4.46875 141.753906 C 12.457031 176.722656 35.683594 211.175781 51.507812 220.121094 C 53.707031 221.367188 55.6875 222.027344 57.371094 222.175781 C 57.003906 221.222656 56.785156 220.195312 56.417969 219.242188 Z M 56.417969 219.242188 "
    />
  </g>
</svg>