<svg 
class ="icon icon-messages-new"
xmlns="http://www.w3.org/2000/svg"
  viewBox="0 0 375 375"
  width="320"
  height="320"
>
  <defs>
        <!-- Mask for cutout effect -->
    <mask id="cutout-mask">
      <!-- White: visible, Black: transparent (cutout) -->
      <rect width="375" height="375" fill="white"/>
      <path
        d="M 265.84375 126.347656
           C 205.558594 126.347656 156.6875 175.21875 156.6875 235.503906
           C 156.6875 295.789062 205.558594 344.660156 265.84375 344.660156
           C 326.128906 344.660156 375 295.789062 375 235.503906
           C 375 175.21875 326.128906 126.347656 265.84375 126.347656
           Z"
        fill="black"
      />
    </mask>
    <clipPath id="038f3d3739">
      <path d="M 1 30.339844 L 362.25 30.339844 L 362.25 326 L 1 326 Z M 1 30.339844 " 
      clip-rule="nonzero"/>
    </clipPath>
    <clipPath id="b62bf8da05">
      <path d="M 265.84375 126.347656 C 205.558594 126.347656 156.6875 175.21875 156.6875 235.503906 C 156.6875 295.789062 205.558594 344.660156 265.84375 344.660156 C 326.128906 344.660156 375 295.789062 375 235.503906 C 375 175.21875 326.128906 126.347656 265.84375 126.347656 Z M 265.84375 126.347656 " 
      clip-rule="nonzero"/>
    </clipPath>
    <clipPath id="e13ba4f9d6">
      <path d="M 167.800781 137.460938 L 363.886719 137.460938 L 363.886719 333.546875 L 167.800781 333.546875 Z M 167.800781 137.460938 " 
      clip-rule="nonzero"/>
    </clipPath>
    <clipPath id="3153a935d9">
      <path d="M 265.84375 137.460938 C 211.695312 137.460938 167.800781 181.355469 167.800781 235.503906 C 167.800781 289.652344 211.695312 333.546875 265.84375 333.546875 C 319.992188 333.546875 363.886719 289.652344 363.886719 235.503906 C 363.886719 181.355469 319.992188 137.460938 265.84375 137.460938 Z M 265.84375 137.460938 " 
      clip-rule="nonzero"/>
    </clipPath>
    <clipPath id="ac12d5d9a7">
      <path d="M 246.273438 163.023438 L 285.273438 163.023438 L 285.273438 270 L 246.273438 270 Z M 246.273438 163.023438 " 
      clip-rule="nonzero"/>
    </clipPath>
  </defs>
  <g clip-path="url(#038f3d3739)">
    <path class ="icon path"
    fill="#ffffff"
    fill-opacity="1"
    fill-rule="nonzero"
    mask="url(#cutout-mask)"
    d="M 290.621094 325.121094 C 290.832031 325.261719 291.046875 325.476562 291.257812 325.617188 L 82.671875 325.617188 C 67.242188 325.617188 54.785156 313.15625 54.785156 297.789062 L 54.785156 286.816406 C 54.785156 286.816406 277.953125 286.816406 277.953125 286.816406 C 277.597656 286.816406 278.164062 300.90625 278.304688 302.25 C 279.4375 311.101562 283.828125 319.316406 290.621094 325.121094 Z M 334.363281 30.363281 C 333.019531 30.363281 331.671875 30.714844 330.398438 31.210938 C 329.621094 31.566406 328.84375 31.992188 328.203125 32.558594 C 328.132812 32.628906 328.132812 32.628906 328.0625 32.699219 C 326.789062 33.761719 325.871094 35.175781 325.160156 36.804688 C 325.019531 37.230469 324.878906 37.65625 324.738281 38.152344 C 324.382812 39.566406 324.101562 41.125 323.816406 42.683594 C 323.25 45.375 322.824219 47.921875 322.402344 50.472656 C 321.835938 54.011719 321.339844 57.550781 320.984375 61.089844 C 320.984375 61.375 320.914062 61.65625 320.914062 62.011719 C 320.703125 64.417969 320.488281 66.828125 320.347656 69.234375 L 362.25 69.234375 L 362.25 58.117188 C 362.25 42.824219 349.792969 30.363281 334.363281 30.363281 Z M 322.257812 178.839844 C 329.480469 219.480469 336.910156 261.539062 330.046875 305.367188 C 328.769531 313.296875 323.535156 320.023438 316.457031 323.421875 C 308.316406 327.316406 299.113281 322.785156 293.453125 316.554688 C 293.3125 316.410156 293.238281 316.339844 293.097656 316.199219 C 288.710938 311.242188 286.019531 304.730469 286.019531 297.71875 L 286.019531 282.78125 C 286.019531 281.648438 285.59375 280.65625 284.886719 279.949219 C 284.179688 279.238281 283.1875 278.816406 282.058594 278.816406 L 109.851562 278.816406 C 109.921875 274.777344 109.425781 268.050781 108.222656 256.371094 C 104.964844 225.285156 97.886719 176.007812 95.550781 159.792969 L 94.914062 155.332031 C 90.242188 126.867188 86.28125 96.070312 89.394531 63.996094 C 91.234375 44.808594 107.230469 30.433594 126.625 30.433594 C 126.625 30.433594 319.5 30.433594 319.570312 30.433594 C 319.214844 30.433594 316.527344 38.082031 316.457031 38.574219 C 313.695312 49.761719 312.773438 61.65625 312.136719 73.128906 C 310.015625 109.59375 316.242188 144.78125 322.257812 178.839844 Z M 114.097656 81.980469 C 114.097656 84.175781 115.867188 86.015625 118.132812 86.015625 C 123.15625 86.015625 125.847656 83.609375 127.828125 81.90625 C 129.386719 80.5625 130.234375 79.785156 132.214844 79.785156 C 134.199219 79.785156 134.976562 80.492188 136.605469 81.90625 C 138.585938 83.609375 141.277344 86.015625 146.300781 86.015625 C 151.328125 86.015625 154.015625 83.609375 156 81.90625 C 157.625 80.5625 158.40625 79.785156 160.386719 79.785156 C 162.367188 79.785156 163.21875 80.492188 164.773438 81.90625 C 166.757812 83.609375 169.445312 86.015625 174.472656 86.015625 C 179.496094 86.015625 182.1875 83.609375 184.167969 81.90625 C 185.796875 80.5625 186.574219 79.785156 188.558594 79.785156 C 190.539062 79.785156 191.316406 80.492188 192.945312 81.90625 C 194.925781 83.609375 197.546875 86.015625 202.640625 86.015625 C 207.667969 86.015625 210.355469 83.609375 212.339844 81.90625 C 213.894531 80.5625 214.746094 79.785156 216.726562 79.785156 C 218.710938 79.785156 219.488281 80.492188 221.117188 81.90625 C 223.027344 83.609375 225.714844 86.015625 230.8125 86.015625 C 235.835938 86.015625 238.527344 83.609375 240.507812 81.90625 C 242.066406 80.5625 242.914062 79.785156 244.898438 79.785156 C 246.878906 79.785156 247.65625 80.492188 249.214844 81.90625 C 251.195312 83.609375 253.886719 86.015625 258.910156 86.015625 C 263.9375 86.015625 266.625 83.609375 268.609375 81.90625 C 270.238281 80.5625 271.015625 79.785156 272.996094 79.785156 C 275.191406 79.785156 277.03125 78.015625 277.03125 75.75 C 277.03125 73.554688 275.191406 71.710938 272.996094 71.710938 C 267.972656 71.710938 265.28125 74.121094 263.300781 75.820312 C 261.742188 77.164062 260.894531 77.941406 258.984375 77.941406 C 257 77.941406 256.152344 77.234375 254.59375 75.820312 C 252.613281 74.121094 249.921875 71.710938 244.898438 71.710938 C 239.871094 71.710938 237.183594 74.121094 235.199219 75.820312 C 233.644531 77.164062 232.792969 77.941406 230.8125 77.941406 C 228.832031 77.941406 228.050781 77.234375 226.496094 75.820312 C 224.511719 74.121094 221.824219 71.710938 216.796875 71.710938 C 211.773438 71.710938 209.082031 74.121094 207.101562 75.820312 C 205.542969 77.164062 204.695312 77.941406 202.710938 77.941406 C 200.730469 77.941406 199.953125 77.234375 198.394531 75.820312 C 196.414062 74.121094 193.722656 71.710938 188.699219 71.710938 C 183.671875 71.710938 180.984375 74.121094 179 75.820312 C 177.445312 77.164062 176.59375 77.941406 174.683594 77.941406 C 172.703125 77.941406 171.851562 77.234375 170.296875 75.820312 C 168.3125 74.121094 165.625 71.710938 160.597656 71.710938 C 155.574219 71.710938 152.882812 74.121094 150.902344 75.820312 C 149.34375 77.164062 148.496094 77.941406 146.585938 77.941406 C 144.601562 77.941406 143.753906 77.234375 142.195312 75.820312 C 140.214844 74.121094 137.523438 71.710938 132.5 71.710938 C 127.472656 71.710938 124.785156 74.121094 122.800781 75.820312 C 121.175781 77.164062 120.394531 77.941406 118.414062 77.941406 C 115.867188 77.941406 114.097656 79.785156 114.097656 81.980469 Z M 118.132812 127.082031 C 123.15625 127.082031 125.847656 124.746094 127.828125 123.046875 C 129.386719 121.628906 130.234375 120.921875 132.214844 120.921875 C 134.199219 120.921875 134.976562 121.628906 136.605469 123.046875 C 138.585938 124.746094 141.277344 127.082031 146.300781 127.082031 C 151.328125 127.082031 154.015625 124.675781 156 123.046875 C 157.625 121.628906 158.40625 120.921875 160.386719 120.921875 C 162.367188 120.921875 163.21875 121.628906 164.773438 123.046875 C 166.757812 124.746094 169.445312 127.082031 174.472656 127.082031 C 179.496094 127.082031 182.1875 124.675781 184.167969 123.046875 C 185.796875 121.628906 186.574219 120.921875 188.558594 120.921875 C 190.539062 120.921875 191.316406 121.628906 192.945312 123.046875 C 194.925781 124.746094 197.546875 127.082031 202.640625 127.082031 C 207.667969 127.082031 210.355469 124.675781 212.339844 123.046875 C 213.894531 121.628906 214.746094 120.921875 216.726562 120.921875 C 218.710938 120.921875 219.488281 121.628906 221.117188 123.046875 C 223.027344 124.746094 225.714844 127.082031 230.8125 127.082031 C 235.835938 127.082031 238.527344 124.675781 240.507812 123.046875 C 242.066406 121.628906 242.914062 120.921875 244.898438 120.921875 C 246.878906 120.921875 247.65625 121.628906 249.214844 123.046875 C 251.195312 124.746094 253.886719 127.082031 258.910156 127.082031 C 263.9375 127.082031 266.625 124.675781 268.609375 123.046875 C 270.238281 121.628906 271.015625 120.921875 272.996094 120.921875 C 275.191406 120.921875 277.03125 119.082031 277.03125 116.886719 C 277.03125 114.691406 275.191406 112.847656 272.996094 112.847656 C 267.972656 112.847656 265.28125 115.1875 263.300781 116.886719 C 261.742188 118.300781 260.894531 119.007812 258.984375 119.007812 C 257 119.007812 256.152344 118.300781 254.59375 116.886719 C 252.613281 115.1875 249.921875 112.847656 244.898438 112.847656 C 239.871094 112.847656 237.183594 115.1875 235.199219 116.886719 C 233.644531 118.300781 232.792969 119.007812 230.8125 119.007812 C 228.832031 119.007812 228.050781 118.300781 226.496094 116.886719 C 224.511719 115.1875 221.824219 112.847656 216.796875 112.847656 C 211.773438 112.847656 209.082031 115.1875 207.101562 116.886719 C 205.542969 118.300781 204.695312 119.007812 202.710938 119.007812 C 200.730469 119.007812 199.953125 118.300781 198.394531 116.886719 C 196.414062 115.1875 193.722656 112.847656 188.699219 112.847656 C 183.671875 112.847656 180.984375 115.1875 179 116.886719 C 177.445312 118.300781 176.59375 119.007812 174.683594 119.007812 C 172.703125 119.007812 171.851562 118.300781 170.296875 116.886719 C 168.3125 115.1875 165.625 112.847656 160.597656 112.847656 C 155.574219 112.847656 152.882812 115.1875 150.902344 116.886719 C 149.34375 118.300781 148.496094 119.007812 146.585938 119.007812 C 144.601562 119.007812 143.753906 118.300781 142.195312 116.886719 C 140.214844 115.1875 137.523438 112.847656 132.5 112.847656 C 127.472656 112.847656 124.785156 115.1875 122.800781 116.886719 C 121.175781 118.300781 120.394531 119.007812 118.414062 119.007812 C 116.148438 119.007812 114.378906 120.851562 114.378906 123.046875 C 114.097656 125.242188 115.867188 127.082031 118.132812 127.082031 Z M 127.617188 168.148438 C 132.710938 168.148438 135.332031 165.742188 137.3125 164.042969 C 138.941406 162.695312 139.71875 161.917969 141.773438 161.917969 C 143.753906 161.917969 144.53125 162.625 146.160156 164.042969 C 148.070312 165.742188 150.761719 168.148438 155.855469 168.148438 C 160.882812 168.148438 163.570312 165.742188 165.554688 164.042969 C 167.109375 162.695312 167.960938 161.917969 169.941406 161.917969 C 171.921875 161.917969 172.703125 162.625 174.332031 164.042969 C 176.3125 165.742188 178.929688 168.148438 184.027344 168.148438 C 189.050781 168.148438 191.742188 165.742188 193.722656 164.042969 C 195.28125 162.695312 196.128906 161.917969 198.113281 161.917969 C 200.09375 161.917969 200.871094 162.625 202.429688 164.042969 C 204.410156 165.742188 207.101562 168.148438 212.125 168.148438 C 217.152344 168.148438 219.839844 165.742188 221.824219 164.042969 C 223.378906 162.695312 224.230469 161.917969 226.210938 161.917969 C 228.195312 161.917969 228.972656 162.625 230.527344 164.042969 C 232.511719 165.742188 235.199219 168.148438 240.226562 168.148438 C 245.25 168.148438 247.941406 165.742188 249.921875 164.042969 C 251.480469 162.695312 252.328125 161.917969 254.242188 161.917969 C 256.222656 161.917969 257.070312 162.625 258.628906 164.042969 C 260.609375 165.742188 263.230469 168.148438 268.324219 168.148438 C 273.351562 168.148438 276.039062 165.742188 278.023438 164.042969 C 279.578125 162.695312 280.429688 161.917969 282.410156 161.917969C 284.605469 161.917969 286.445312 160.074219 286.445312 157.882812 C 286.445312 155.6875 284.605469 153.84375 282.410156 153.84375 C 277.386719 153.84375 274.695312 156.253906 272.714844 157.953125 C 271.15625 159.296875 270.308594 160.074219 268.324219 160.074219 C 266.34375 160.074219 265.566406 159.367188 264.007812 157.953125 C 262.027344 156.253906 259.335938 153.84375 254.3125 153.84375 C 249.285156 153.84375 246.597656 156.253906 244.613281 157.953125 C 242.988281 159.296875 242.207031 160.074219 240.226562 160.074219 C 238.246094 160.074219 237.464844 159.367188 235.835938 157.953125 C 233.855469 156.253906 231.238281 153.84375 226.140625 153.84375 C 221.117188 153.84375 218.425781 156.253906 216.445312 157.953125 C 214.886719 159.296875 214.039062 160.074219 212.054688 160.074219 C 210.074219 160.074219 209.296875 159.367188 207.667969 157.953125 C 205.757812 156.253906 203.066406 153.84375 197.96875 153.84375 C 192.945312 153.84375 190.253906 156.253906 188.273438 157.953125 C 186.714844 159.296875 185.867188 160.074219 183.886719 160.074219 C 181.902344 160.074219 181.125 159.367188 179.566406 157.953125 C 177.585938 156.253906 174.894531 153.84375 169.871094 153.84375 C 164.84375 153.84375 162.15625 156.253906 160.175781 157.953125 C 158.617188 159.296875 157.769531 160.074219 155.855469 160.074219 C 153.875 160.074219 153.027344 159.367188 151.398438 157.953125 C 149.488281 156.253906 146.796875 153.84375 141.699219 153.84375 C 136.605469 153.84375 133.914062 156.253906 131.933594 157.953125 C 130.375 159.296875 129.527344 160.074219 127.542969 160.074219 C 125.351562 160.074219 123.511719 161.847656 123.511719 164.113281 C 123.582031 166.308594 125.421875 168.148438 127.617188 168.148438 Z M 133.136719 209.214844 C 138.160156 209.214844 140.851562 206.808594 142.832031 205.109375 C 144.390625 203.761719 145.238281 203.054688 147.222656 203.054688 C 149.203125 203.054688 150.054688 203.761719 151.609375 205.109375 C 153.589844 206.808594 156.28125 209.214844 161.308594 209.214844 C 166.332031 209.214844 169.023438 206.808594 171.003906 205.109375 C 172.5625 203.761719 173.410156 203.054688 175.320312 203.054688 C 177.304688 203.054688 178.152344 203.761719 179.710938 205.109375 C 181.691406 206.808594 184.382812 209.214844 189.40625 209.214844 C 194.429688 209.214844 197.121094 206.808594 199.101562 205.109375 C 200.660156 203.761719 201.507812 203.054688 203.421875 203.054688 C 205.402344 203.054688 206.25 203.761719 207.808594 205.109375 C 209.789062 206.808594 212.480469 209.214844 217.503906 209.214844 C 222.53125 209.214844 225.222656 206.808594 227.203125 205.109375 C 228.832031 203.761719 229.609375 203.054688 231.589844 203.054688 C 233.574219 203.054688 234.421875 203.761719 235.980469 205.109375 C 237.960938 206.808594 240.652344 209.214844 245.675781 209.214844 C 250.703125 209.214844 253.390625 206.808594 255.371094 205.109375 C 256.929688 203.761719 257.78125 203.054688 259.761719 203.054688 C 261.742188 203.054688 262.523438 203.761719 264.078125 205.109375 C 266.0625 206.808594 268.75 209.214844 273.777344 209.214844 C 278.800781 209.214844 281.492188 206.808594 283.472656 205.109375 C 285.101562 203.761719 285.878906 203.054688 287.859375 203.054688 C 290.125 203.054688 291.894531 201.214844 291.894531 199.019531 C 291.894531 196.753906 290.125 194.984375 287.859375 194.984375 C 282.835938 194.984375 280.144531 197.320312 278.164062 199.019531 C 276.535156 200.433594 275.757812 201.140625 273.777344 201.140625 C 271.792969 201.140625 271.015625 200.433594 269.386719 199.019531 C 267.476562 197.320312 264.785156 194.984375 259.691406 194.984375 C 254.664062 194.984375 251.976562 197.320312 249.992188 199.019531 C 248.4375 200.433594 247.585938 201.140625 245.675781 201.140625 C 243.695312 201.140625 242.84375 200.433594 241.289062 199.019531 C 239.304688 197.320312 236.617188 194.984375 231.589844 194.984375 C 226.566406 194.984375 223.875 197.320312 221.894531 199.019531 C 220.335938 200.433594 219.488281 201.140625 217.578125 201.140625 C 215.59375 201.140625 214.746094 200.433594 213.1875 199.019531 C 211.207031 197.320312 208.515625 194.984375 203.492188 194.984375 C 198.464844 194.984375 195.777344 197.320312 193.792969 199.019531 C 192.167969 200.433594 191.386719 201.140625 189.40625 201.140625 C 187.425781 201.140625 186.574219 200.433594 185.019531 199.019531 C 183.035156 197.320312 180.347656 194.984375 175.320312 194.984375 C 170.296875 194.984375 167.605469 197.320312 165.625 199.019531 C 163.996094 200.433594 163.21875 201.140625 161.234375 201.140625 C 159.253906 201.140625 158.40625 200.433594 156.847656 199.019531 C 154.867188 197.320312 152.175781 194.984375 147.152344 194.984375 C 142.125 194.984375 139.4375 197.320312 137.453125 199.019531 C 135.898438 200.433594 135.046875 201.140625 133.066406 201.140625 C 130.871094 201.140625 129.03125 202.984375 129.03125 205.179688 C 129.101562 207.375 130.941406 209.214844 133.136719 209.214844 Z M 300.316406 240.015625 C 300.316406 237.820312 298.546875 235.976562 296.285156 235.976562 C 291.257812 235.976562 288.570312 238.386719 286.585938 240.015625 C 284.957031 241.429688 284.179688 242.136719 282.199219 242.136719 C 280.214844 242.136719 279.4375 241.429688 277.808594 240.015625 C 275.898438 238.316406 273.210938 235.976562 268.113281 235.976562 C 263.085938 235.976562 260.398438 238.386719 258.417969 240.015625 C 256.859375 241.429688 256.011719 242.136719 254.097656 242.136719 C 252.117188 242.136719 251.265625 241.429688 249.710938 240.015625 C 247.730469 238.316406 245.039062 235.976562 240.011719 235.976562 C 234.988281 235.976562 232.296875 238.386719 230.316406 240.015625 C 228.757812 241.429688 227.910156 242.136719 226 242.136719 C 224.015625 242.136719 223.167969 241.429688 221.609375 240.015625 C 219.628906 238.316406 216.9375 235.976562 211.914062 235.976562 C 206.890625 235.976562 204.199219 238.386719 202.21875 240.015625 C 200.589844 241.429688 199.8125 242.136719 197.828125 242.136719 C 195.847656 242.136719 195.070312 241.429688 193.441406 240.015625 C 191.457031 238.316406 188.839844 235.976562 183.742188 235.976562 C 178.648438 235.976562 176.027344 238.386719 174.046875 240.015625 C 172.417969 241.429688 171.640625 242.136719 169.660156 242.136719 C 167.675781 242.136719 166.828125 241.429688 165.269531 240.015625 C 163.289062 238.316406 160.597656 235.976562 155.574219 235.976562 C 150.546875 235.976562 147.859375 238.386719 145.875 240.015625 C 144.320312 241.429688 143.46875 242.136719 141.488281 242.136719 C 139.292969 242.136719 137.453125 243.980469 137.453125 246.175781 C 137.453125 248.441406 139.292969 250.210938 141.488281 250.210938 C 146.511719 250.210938 149.203125 247.875 151.183594 246.175781 C 152.742188 244.757812 153.589844 244.050781 155.574219 244.050781 C 157.554688 244.050781 158.40625 244.757812 159.960938 246.175781 C 161.945312 247.875 164.632812 250.210938 169.660156 250.210938 C 174.683594 250.210938 177.375 247.875 179.355469 246.175781 C 180.914062 244.757812 181.761719 244.050781 183.742188 244.050781 C 185.726562 244.050781 186.503906 244.757812 188.0625 246.175781 C 190.042969 247.875 192.734375 250.210938 197.757812 250.210938 C 202.785156 250.210938 205.472656 247.875 207.453125 246.175781 C 209.011719 244.757812 209.863281 244.050781 211.773438 244.050781 C 213.753906 244.050781 214.605469 244.757812 216.160156 246.175781 C 218.144531 247.875 220.832031 250.210938 225.859375 250.210938 C 230.882812 250.210938 233.574219 247.875 235.554688 246.175781 C 237.183594 244.757812 237.960938 244.050781 239.941406 244.050781 C 241.925781 244.050781 242.773438 244.757812 244.332031 246.175781 C 246.3125 247.875 249.003906 250.210938 254.027344 250.210938 C 259.054688 250.210938 261.742188 247.875 263.726562 246.175781 C 265.351562 244.757812 266.132812 244.050781 268.113281 244.050781 C 270.09375 244.050781 270.875 244.757812 272.429688 246.175781 C 274.414062 247.875 277.101562 250.210938 282.128906 250.210938 C 287.152344 250.210938 289.84375 247.875 291.824219 246.175781 C 293.382812 244.757812 294.230469 244.050781 296.140625 244.050781 C 298.546875 244.050781 300.316406 242.28125 300.316406 240.015625 Z M 57.898438 223.800781 C 61.863281 236.6875 65.683594 249.714844 69.152344 262.742188 C 69.648438 264.511719 71.273438 265.714844 73.042969 265.714844 C 73.398438 265.714844 73.753906 265.644531 74.105469 265.574219 C 76.230469 265.007812 77.503906 262.8125 76.9375 260.617188 C 73.328125 247.023438 69.292969 233.359375 65.117188 219.90625 Z M 54.5 212.96875 C 47.988281 192.859375 40.699219 172.679688 32.839844 152.925781 C 31.992188 150.871094 32.984375 148.535156 35.105469 147.683594 C 37.160156 146.90625 39.496094 147.898438 40.34375 149.949219 C 48.273438 169.777344 55.5625 190.097656 62.144531 210.277344 C 62.640625 209.285156 63.066406 208.292969 63.488281 207.160156 C 70.496094 188.46875 68.019531 151.367188 51.8125 124.035156 C 38.789062 102.15625 19.253906 89.625 3.679688 82.6875 C 0 101.664062 0.210938 120.285156 4.316406 138.125 C 12.03125 171.898438 34.46875 205.179688 49.757812 213.816406 C 51.882812 215.019531 53.792969 215.65625 55.421875 215.800781 C 55.066406 214.878906 54.855469 213.886719 54.5 212.96875 Z M 54.5 212.96875 " />
  </g>
  <g clip-path="url(#3153a935d9)">
    <path class="circle"
    fill-opacity="1" 
    fill-rule="nonzero"
    fill="#ff0000"
    d="M 167.800781 137.460938 L 363.886719 137.460938 L 363.886719 333.546875 L 167.800781 333.546875 Z M 167.800781 137.460938 "/>
  </g>
  <g clip-path="url(#ac12d5d9a7)">
    <path class="exclamation"
    fill-opacity="1"
    fill-rule="nonzero"
    fill="#ffffff" 
    d="M 285.40625 182.789062 C 285.40625 171.984375 276.644531 163.222656 265.835938 163.222656 C 255.03125 163.222656 246.269531 171.984375 246.269531 182.789062 C 246.269531 184.09375 246.398438 185.367188 246.644531 186.601562 C 246.703125 187.636719 246.816406 188.683594 246.980469 189.734375 L 258.742188 263.597656 C 259.332031 267.289062 262.375 269.949219 265.835938 269.949219 C 269.300781 269.949219 272.34375 267.289062 272.929688 263.597656 L 284.691406 189.734375 C 284.859375 188.683594 284.972656 187.636719 285.03125 186.601562 C 285.277344 185.367188 285.40625 184.09375 285.40625 182.789062 Z M 285.40625 182.789062 "/>
  </g>
  <path
    class="exclamation"
    fill="#ffffff"
    d="M 274.304688 281.78125 C 274.875 282.347656 275.382812 282.96875 275.828125 283.636719 C 276.273438 284.304688 276.652344 285.011719 276.960938 285.753906 C 277.269531 286.496094 277.5 287.261719 277.65625 288.050781 C 277.8125 288.839844 277.890625 289.636719 277.890625 290.441406 C 277.890625 291.246094 277.8125 292.042969 277.65625 292.832031 C 277.5 293.617188 277.269531 294.386719 276.960938 295.128906 C 276.652344 295.871094 276.273438 296.578125 275.828125 297.246094 C 275.382812 297.914062 274.875 298.53125 274.304688 299.101562 C 273.738281 299.671875 273.117188 300.179688 272.449219 300.625 C 271.78125 301.070312 271.074219 301.449219 270.332031 301.757812 C 269.589844 302.0625 268.824219 302.296875 268.035156 302.453125 C 267.246094 302.609375 266.449219 302.6875 265.644531 302.6875 C 264.839844 302.6875 264.042969 302.609375 263.253906 302.453125 C 262.464844 302.296875 261.699219 302.066406 260.957031 301.757812 C 260.214844 301.449219 259.507812 301.070312 258.839844 300.625 C 258.171875 300.179688 257.550781 299.671875 256.984375 299.101562 C 256.414062 298.53125 255.90625 297.914062 255.460938 297.246094 C 255.011719 296.578125 254.636719 295.871094 254.328125 295.128906 C 254.019531 294.386719 253.789062 293.621094 253.632812 292.832031 C 253.472656 292.042969 253.394531 291.246094 253.394531 290.441406 C 253.394531 289.636719 253.472656 288.839844 253.632812 288.050781 C 253.789062 287.261719 254.019531 286.496094 254.328125 285.753906 C 254.636719 285.011719 255.011719 284.304688 255.460938 283.636719 C 255.90625 282.96875 256.414062 282.347656 256.984375 281.78125 C 257.550781 281.210938 258.171875 280.703125 258.839844 280.257812 C 259.507812 279.808594 260.214844 279.433594 260.957031 279.125 C 261.699219 278.816406 262.464844 278.585938 263.253906 278.429688 C 264.042969 278.269531 264.839844 278.191406 265.644531 278.191406 C 266.449219 278.191406 267.246094 278.269531 268.035156 278.429688 C 268.820312 278.585938 269.589844 278.816406 270.332031 279.125 C 271.074219 279.433594 271.78125 279.808594 272.449219 280.257812 C 273.117188 280.703125 273.734375 281.210938 274.304688 281.78125 Z M 274.304688 281.78125 " 
    fill-opacity="1" 
    fill-rule="nonzero"/>
</svg>