<svg class="icon icon-profile"
xmlns="http://www.w3.org/2000/svg"
 width="320" 
  viewBox="0 0 375 374.999991" 
  height="320">
  <defs>
    <clipPath id="7176c14469">
      <path d="M 0 3.515625 L 368 3.515625 L 368 371.765625 L 0 371.765625 Z M 0 3.515625 " clip-rule="nonzero"/>
    </clipPath>
  </defs>
  <g clip-path="url(#7176c14469)">
    <path class="icon-body"
    fill="#000000" d="M 309.34375 123.144531 C 232.390625 37.003906 159.785156 58.511719 159.785156 58.511719 C 267.847656 72.046875 240.433594 187.121094 198.050781 209.808594 C 192.773438 212.632812 187.011719 214.882812 181.160156 217.023438 C 182.640625 203.347656 178.636719 190.429688 174.652344 181.460938 C 186.320312 193.246094 189.699219 209.425781 189.699219 209.425781 C 193.484375 180.308594 173.976562 162.765625 165.6875 156.710938 C 180.351562 158.929688 189.628906 170.550781 189.628906 170.550781 C 182.460938 146.476562 163.488281 142.023438 152.496094 141.554688 C 154.921875 133.300781 168.246094 132.976562 168.246094 132.976562 C 146.078125 118.421875 129.828125 130.3125 129.828125 130.3125 C 134.910156 115.667969 150.140625 111.945312 150.140625 111.945312 C 122.71875 104.492188 110.328125 137.234375 110.328125 137.234375 C 112.207031 120.769531 120.484375 107.949219 120.484375 107.949219 C 93.46875 119.667969 100.984375 148.949219 93.675781 155.871094 C 88.683594 160.589844 87.667969 166.546875 87.523438 169.863281 C 88.539062 168.488281 90.441406 166.800781 92.765625 165.316406 C 96.527344 162.910156 99.953125 161.964844 100.414062 163.203125 C 100.871094 164.441406 98.128906 167.21875 94.429688 169.800781 C 90.054688 172.855469 73.113281 176.164062 71.671875 191.476562 C 70.734375 201.398438 85.546875 201.128906 85.546875 201.128906 C 98.742188 194.679688 108.976562 199.152344 125.363281 190.125 C 133.515625 185.632812 135.25 174.863281 135.25 174.863281 C 143.78125 175.390625 150.644531 198.519531 129.015625 253.839844 C 114.671875 290.527344 121.359375 316.902344 133.769531 335.109375 C 72.242188 314.253906 27.964844 256.023438 27.964844 187.453125 C 27.964844 101.363281 97.753906 31.578125 183.839844 31.578125 C 261.503906 31.578125 325.894531 88.382812 337.753906 162.710938 C 330.183594 149.328125 320.851562 136.027344 309.34375 123.144531 Z M 367.71875 187.453125 C 367.71875 85.894531 285.394531 3.570312 183.839844 3.570312 C 81.984375 3.570312 -0.0429688 85.597656 -0.0429688 187.453125 C -0.0429688 289.007812 82.285156 371.332031 183.839844 371.332031 C 250.457031 371.332031 308.796875 335.90625 341.054688 282.871094 C 336.296875 271.875 330.28125 263.0625 323.597656 256.53125 C 298.125 307.960938 245.117188 343.324219 183.839844 343.324219 C 183.480469 343.324219 183.125 343.324219 182.765625 343.320312 C 167.410156 343.21875 156.046875 328.367188 160.515625 313.667969 C 163.421875 304.117188 171.628906 299.242188 181.5 297.050781 C 229.59375 286.359375 264.695312 244.648438 264.4375 195.382812 C 264.234375 157.148438 253.46875 129.179688 253.46875 129.179688 C 276.113281 174.976562 277.125 213.046875 272.957031 238.945312 C 311.707031 219.269531 359.703125 258.554688 360.808594 339.675781 C 360.808594 339.675781 374.972656 290.675781 362.734375 230.128906 C 365.992188 216.429688 367.71875 202.144531 367.71875 187.453125 " fill-opacity="1" fill-rule="nonzero"/>
  </g>
</svg>