<svg class="icon icon-logo-text" xmlns="http://www.w3.org/2000/svg" width="200" viewBox="0 0 150 74.999997" height="100">
<defs/>
<g id="775d1b2a30">
<g style="fill:#000000;fill-opacity:1;">
<g transform="translate(15.078564, 57.690428)">
<path style="stroke:none" d="M 16.6875 -15.984375 L 14.828125 -9.9375 L 14.78125 -9.84375 C 14.519531 -9.664062 13.992188 -9.660156 13.203125 -9.828125 C 12.410156 -10.003906 11.445312 -10.300781 10.3125 -10.71875 C 9.175781 -11.144531 7.929688 -11.628906 6.578125 -12.171875 C 5.222656 -12.710938 3.84375 -13.25 2.4375 -13.78125 C 1.03125 -14.320312 -0.328125 -14.800781 -1.640625 -15.21875 L 2.265625 -9.359375 C 2.765625 -8.578125 3.207031 -8.144531 3.59375 -8.0625 C 3.988281 -7.988281 4.332031 -8.359375 4.625 -9.171875 L 5.765625 -8.703125 L 3.90625 -2.59375 C 3.113281 -2.550781 2.285156 -2.765625 1.421875 -3.234375 C 0.554688 -3.703125 -0.25 -4.5 -1 -5.625 L -6.453125 -13.8125 C -6.992188 -14.582031 -7.5 -14.960938 -7.96875 -14.953125 C -8.4375 -14.953125 -8.875 -14.476562 -9.28125 -13.53125 L -10.265625 -14.140625 L -8.3125 -20.96875 C -7.851562 -21.269531 -7.210938 -21.40625 -6.390625 -21.375 C -5.578125 -21.34375 -4.644531 -21.195312 -3.59375 -20.9375 C -2.539062 -20.6875 -1.414062 -20.351562 -0.21875 -19.9375 C 0.96875 -19.519531 2.179688 -19.078125 3.421875 -18.609375 C 4.660156 -18.140625 5.867188 -17.679688 7.046875 -17.234375 L 4.4375 -21.15625 C 3.894531 -21.90625 3.390625 -22.273438 2.921875 -22.265625 C 2.460938 -22.265625 2.019531 -21.789062 1.59375 -20.84375 L 0.59375 -21.4375 L 2.5625 -28.21875 C 3.3125 -28.175781 3.960938 -28.0625 4.515625 -27.875 C 5.078125 -27.695312 5.601562 -27.390625 6.09375 -26.953125 C 6.59375 -26.523438 7.109375 -25.894531 7.640625 -25.0625 L 13.078125 -16.9375 C 13.359375 -16.476562 13.648438 -16.109375 13.953125 -15.828125 C 14.265625 -15.554688 14.554688 -15.457031 14.828125 -15.53125 C 15.109375 -15.613281 15.347656 -15.925781 15.546875 -16.46875 Z M 16.6875 -15.984375 "/></g></g><g style="fill:#000000;fill-opacity:1;"><g transform="translate(32.372483, 46.292212)"><path style="stroke:none" d="M 11.1875 -9.015625 C 10.726562 -7.566406 10.238281 -6.101562 9.71875 -4.625 C 9.195312 -3.144531 8.664062 -1.75 8.125 -0.4375 C 7.59375 0.863281 7.039062 2.003906 6.46875 2.984375 C 5.90625 3.960938 5.332031 4.695312 4.75 5.1875 C 4.175781 5.675781 3.585938 5.816406 2.984375 5.609375 C 2.273438 5.347656 1.722656 4.90625 1.328125 4.28125 C 0.941406 3.65625 0.796875 2.894531 0.890625 2 C 0.992188 1.101562 1.414062 0.117188 2.15625 -0.953125 C 2.894531 -2.035156 4.050781 -3.140625 5.625 -4.265625 C 5.039062 -4.691406 4.425781 -5.210938 3.78125 -5.828125 C 3.132812 -6.441406 2.484375 -7.082031 1.828125 -7.75 C 1.179688 -8.414062 0.550781 -9.03125 -0.0625 -9.59375 C -0.6875 -10.164062 -1.273438 -10.609375 -1.828125 -10.921875 C -2.390625 -11.234375 -2.894531 -11.359375 -3.34375 -11.296875 C -3.789062 -11.234375 -4.164062 -10.882812 -4.46875 -10.25 L -5.296875 -10.984375 L -2.5625 -16.984375 C -2.0625 -17.179688 -1.503906 -17.140625 -0.890625 -16.859375 C -0.285156 -16.578125 0.351562 -16.140625 1.03125 -15.546875 C 1.707031 -14.953125 2.394531 -14.289062 3.09375 -13.5625 C 3.800781 -12.84375 4.492188 -12.140625 5.171875 -11.453125 C 5.847656 -10.765625 6.5 -10.175781 7.125 -9.6875 C 7.75 -9.207031 8.316406 -8.929688 8.828125 -8.859375 C 8.835938 -9.472656 8.738281 -10.144531 8.53125 -10.875 C 8.332031 -11.601562 8.050781 -12.300781 7.6875 -12.96875 C 7.332031 -13.632812 6.925781 -14.175781 6.46875 -14.59375 C 6.007812 -15.019531 5.535156 -15.226562 5.046875 -15.21875 C 4.566406 -15.207031 4.09375 -14.894531 3.625 -14.28125 L 2.6875 -15.015625 L 6.078125 -20.515625 C 6.671875 -20.765625 7.289062 -20.757812 7.9375 -20.5 C 8.59375 -20.238281 9.207031 -19.757812 9.78125 -19.0625 C 10.363281 -18.375 10.835938 -17.519531 11.203125 -16.5 C 11.566406 -15.476562 11.765625 -14.332031 11.796875 -13.0625 C 11.835938 -11.789062 11.632812 -10.441406 11.1875 -9.015625 Z M 3.875 1.640625 C 4.09375 1.722656 4.363281 1.585938 4.6875 1.234375 C 5.007812 0.878906 5.316406 0.425781 5.609375 -0.125 C 5.898438 -0.675781 6.117188 -1.222656 6.265625 -1.765625 C 6.410156 -2.316406 6.421875 -2.742188 6.296875 -3.046875 C 5.660156 -2.785156 5.128906 -2.429688 4.703125 -1.984375 C 4.273438 -1.535156 3.945312 -1.054688 3.71875 -0.546875 C 3.5 -0.046875 3.398438 0.398438 3.421875 0.796875 C 3.453125 1.203125 3.601562 1.484375 3.875 1.640625 Z M 3.875 1.640625 "/></g></g><g style="fill:#000000;fill-opacity:1;"><g transform="translate(46.909632, 40.363951)"><path style="stroke:none" d="M 7.84375 -11.921875 C 7.457031 -12.328125 7.039062 -12.722656 6.59375 -13.109375 C 6.15625 -13.503906 5.726562 -13.757812 5.3125 -13.875 C 4.894531 -13.988281 4.523438 -13.800781 4.203125 -13.3125 L 4.078125 -13.09375 L 4.171875 -12.65625 L 5.359375 -7.921875 C 5.515625 -7.171875 5.773438 -6.648438 6.140625 -6.359375 C 6.503906 -6.066406 6.96875 -6.25 7.53125 -6.90625 L 8.421875 -6.15625 L 4.546875 -1.09375 C 3.773438 -1.34375 3.066406 -1.835938 2.421875 -2.578125 C 1.773438 -3.316406 1.3125 -4.328125 1.03125 -5.609375 L -0.078125 -10.171875 C -0.316406 -11.054688 -0.65625 -11.578125 -1.09375 -11.734375 C -1.539062 -11.898438 -2.125 -11.597656 -2.84375 -10.828125 L -3.5625 -11.640625 L 0.609375 -17.296875 C 1.265625 -17.003906 1.820312 -16.6875 2.28125 -16.34375 C 2.738281 -16.007812 3.113281 -15.539062 3.40625 -14.9375 L 5.6875 -18.53125 C 6.257812 -18.675781 6.847656 -18.628906 7.453125 -18.390625 C 8.054688 -18.160156 8.613281 -17.859375 9.125 -17.484375 C 9.632812 -17.109375 10.054688 -16.769531 10.390625 -16.46875 C 10.722656 -16.175781 10.890625 -16.03125 10.890625 -16.03125 Z M 7.84375 -11.921875 "/></g></g><g style="fill:#000000;fill-opacity:1;"><g transform="translate(58.867883, 37.522778)"><path style="stroke:none" d="M -1.703125 -18.921875 L 2.25 -23.03125 L 3.984375 -21.203125 L -0.40625 -17.5 Z M 8.25 -6.046875 L 9.046875 -5.171875 L 4.640625 -0.578125 C 3.921875 -0.898438 3.28125 -1.460938 2.71875 -2.265625 C 2.164062 -3.066406 1.8125 -4.125 1.65625 -5.4375 L 1.0625 -10.109375 C 0.90625 -11.015625 0.613281 -11.566406 0.1875 -11.765625 C -0.226562 -11.972656 -0.832031 -11.75 -1.625 -11.09375 L -2.234375 -12 L 2.5625 -17.125 C 3.195312 -16.757812 3.71875 -16.367188 4.125 -15.953125 C 4.539062 -15.546875 4.851562 -15.039062 5.0625 -14.4375 C 5.28125 -13.84375 5.441406 -13.0625 5.546875 -12.09375 L 6.21875 -7.265625 C 6.289062 -6.503906 6.488281 -5.960938 6.8125 -5.640625 C 7.132812 -5.328125 7.613281 -5.460938 8.25 -6.046875 Z M 8.25 -6.046875 "/></g></g><g style="fill:#000000;fill-opacity:1;"><g transform="translate(66.994277, 36.250348)"><path style="stroke:none" d="M 15.328125 -4.9375 L 16.015625 -4.09375 L 11.046875 -0.015625 C 10.722656 -0.015625 10.40625 -0.179688 10.09375 -0.515625 C 9.78125 -0.859375 9.515625 -1.285156 9.296875 -1.796875 C 9.078125 -2.316406 8.9375 -2.804688 8.875 -3.265625 L 4.421875 0 C 3.597656 -0.0195312 2.882812 -0.296875 2.28125 -0.828125 C 1.6875 -1.359375 1.242188 -2.015625 0.953125 -2.796875 C 0.660156 -3.578125 0.554688 -4.320312 0.640625 -5.03125 C 0.878906 -6.59375 1.6875 -7.859375 3.0625 -8.828125 C 4.4375 -9.796875 6.140625 -10.570312 8.171875 -11.15625 C 7.847656 -11.675781 7.394531 -12.0625 6.8125 -12.3125 C 6.226562 -12.5625 5.585938 -12.691406 4.890625 -12.703125 C 4.203125 -12.722656 3.515625 -12.632812 2.828125 -12.4375 C 2.140625 -12.25 1.515625 -11.984375 0.953125 -11.640625 L 0.34375 -12.578125 L 6.015625 -16.6875 C 6.898438 -16.6875 7.773438 -16.625 8.640625 -16.5 C 9.503906 -16.382812 10.289062 -16.140625 11 -15.765625 C 11.707031 -15.398438 12.28125 -14.847656 12.71875 -14.109375 C 13.15625 -13.378906 13.382812 -12.410156 13.40625 -11.203125 L 13.4375 -6.515625 C 13.414062 -5.734375 13.550781 -5.148438 13.84375 -4.765625 C 14.144531 -4.378906 14.640625 -4.4375 15.328125 -4.9375 Z M 6.765625 -3.59375 L 8.65625 -4.828125 L 8.625 -9.734375 C 7.65625 -9.367188 6.90625 -8.910156 6.375 -8.359375 C 5.84375 -7.804688 5.515625 -7.21875 5.390625 -6.59375 C 5.273438 -5.976562 5.335938 -5.398438 5.578125 -4.859375 C 5.828125 -4.316406 6.222656 -3.894531 6.765625 -3.59375 Z M 6.765625 -3.59375 "/></g></g><g style="fill:#000000;fill-opacity:1;"><g transform="translate(80.726209, 35.742387)"><path style="stroke:none" d="M 23.09375 0.25 L 17.546875 3.265625 L 17.4375 3.3125 C 17.132812 3.25 16.757812 2.878906 16.3125 2.203125 C 15.875 1.523438 15.394531 0.640625 14.875 -0.453125 C 14.351562 -1.554688 13.800781 -2.769531 13.21875 -4.09375 C 12.632812 -5.425781 12.023438 -6.773438 11.390625 -8.140625 C 10.765625 -9.503906 10.128906 -10.800781 9.484375 -12.03125 L 8.171875 -5.109375 C 7.972656 -4.191406 7.984375 -3.566406 8.203125 -3.234375 C 8.429688 -2.910156 8.9375 -2.929688 9.71875 -3.296875 L 10.203125 -2.1875 L 4.609375 0.875 C 4.015625 0.351562 3.566406 -0.375 3.265625 -1.3125 C 2.972656 -2.257812 2.953125 -3.394531 3.203125 -4.71875 L 5.046875 -14.390625 C 5.203125 -15.316406 5.113281 -15.941406 4.78125 -16.265625 C 4.445312 -16.585938 3.796875 -16.554688 2.828125 -16.171875 L 2.546875 -17.28125 L 8.75 -20.796875 C 9.28125 -20.691406 9.828125 -20.335938 10.390625 -19.734375 C 10.953125 -19.140625 11.515625 -18.382812 12.078125 -17.46875 C 12.648438 -16.5625 13.21875 -15.539062 13.78125 -14.40625 C 14.34375 -13.269531 14.90625 -12.101562 15.46875 -10.90625 C 16.03125 -9.707031 16.566406 -8.53125 17.078125 -7.375 L 17.96875 -12 C 18.113281 -12.925781 18.015625 -13.550781 17.671875 -13.875 C 17.335938 -14.195312 16.6875 -14.171875 15.71875 -13.796875 L 15.421875 -14.890625 L 21.578125 -18.359375 C 22.085938 -17.804688 22.476562 -17.269531 22.75 -16.75 C 23.019531 -16.238281 23.175781 -15.65625 23.21875 -15 C 23.269531 -14.34375 23.191406 -13.535156 22.984375 -12.578125 L 21.203125 -2.953125 C 21.078125 -2.429688 21.023438 -1.960938 21.046875 -1.546875 C 21.078125 -1.140625 21.21875 -0.863281 21.46875 -0.71875 C 21.71875 -0.582031 22.101562 -0.632812 22.625 -0.875 Z M 23.09375 0.25 "/></g></g><g style="fill:#000000;fill-opacity:1;"><g transform="translate(101.149217, 39.878472)"><path style="stroke:none" d="M 8.578125 -3.25 C 8.960938 -2.382812 9.546875 -1.722656 10.328125 -1.265625 C 11.117188 -0.816406 12.191406 -0.738281 13.546875 -1.03125 L 13.796875 0.09375 L 6.09375 2.34375 C 5.457031 2.082031 4.910156 1.578125 4.453125 0.828125 C 4.003906 0.0859375 3.660156 -0.78125 3.421875 -1.78125 C 3.191406 -2.789062 3.082031 -3.828125 3.09375 -4.890625 C 3.113281 -5.960938 3.285156 -6.957031 3.609375 -7.875 C 3.929688 -8.800781 4.421875 -9.539062 5.078125 -10.09375 C 5.390625 -10.320312 5.882812 -10.625 6.5625 -11 C 7.25 -11.375 8.019531 -11.726562 8.875 -12.0625 C 9.738281 -12.394531 10.578125 -12.632812 11.390625 -12.78125 C 12.203125 -12.9375 12.882812 -12.910156 13.4375 -12.703125 C 13.976562 -12.492188 14.460938 -12.109375 14.890625 -11.546875 C 15.328125 -10.992188 15.691406 -10.363281 15.984375 -9.65625 C 16.273438 -8.957031 16.460938 -8.269531 16.546875 -7.59375 C 16.628906 -6.914062 16.582031 -6.34375 16.40625 -5.875 Z M 9.546875 -10.5 C 9.078125 -10.363281 8.726562 -9.992188 8.5 -9.390625 C 8.28125 -8.796875 8.175781 -8.085938 8.1875 -7.265625 C 8.195312 -6.441406 8.273438 -5.632812 8.421875 -4.84375 L 11.59375 -5.953125 C 11.632812 -6.421875 11.617188 -6.9375 11.546875 -7.5 C 11.472656 -8.0625 11.347656 -8.578125 11.171875 -9.046875 C 10.992188 -9.523438 10.769531 -9.90625 10.5 -10.1875 C 10.226562 -10.476562 9.910156 -10.582031 9.546875 -10.5 Z M 9.546875 -10.5 "/></g></g><g style="fill:#000000;fill-opacity:1;"><g transform="translate(112.714946, 44.217365)"><path style="stroke:none" d="M 9.921875 -9.8125 C 9.941406 -9.226562 10.117188 -8.65625 10.453125 -8.09375 C 10.785156 -7.539062 11.191406 -6.976562 11.671875 -6.40625 C 12.160156 -5.84375 12.644531 -5.257812 13.125 -4.65625 C 13.613281 -4.050781 14.019531 -3.414062 14.34375 -2.75 C 14.664062 -2.082031 14.820312 -1.363281 14.8125 -0.59375 C 14.8125 0.175781 14.566406 1.007812 14.078125 1.90625 C 13.578125 2.789062 12.972656 3.421875 12.265625 3.796875 C 11.566406 4.171875 10.796875 4.34375 9.953125 4.3125 C 9.117188 4.289062 8.269531 4.128906 7.40625 3.828125 C 6.539062 3.535156 5.703125 3.164062 4.890625 2.71875 C 4.085938 2.269531 3.359375 1.742188 2.703125 1.140625 C 2.046875 0.546875 1.535156 -0.0703125 1.171875 -0.71875 C 0.816406 -1.375 0.644531 -2.019531 0.65625 -2.65625 L 6.5625 -4.125 L 6.921875 -3.296875 C 6.617188 -3.203125 6.503906 -2.988281 6.578125 -2.65625 C 6.660156 -2.320312 6.863281 -1.925781 7.1875 -1.46875 C 7.519531 -1.007812 7.914062 -0.546875 8.375 -0.078125 C 8.832031 0.378906 9.273438 0.800781 9.703125 1.1875 C 10.128906 1.570312 10.476562 1.835938 10.75 1.984375 C 10.976562 1.617188 10.96875 1.160156 10.71875 0.609375 C 10.46875 0.0664062 10.085938 -0.550781 9.578125 -1.25 C 9.078125 -1.945312 8.53125 -2.675781 7.9375 -3.4375 C 7.34375 -4.207031 6.796875 -4.96875 6.296875 -5.71875 C 5.804688 -6.476562 5.46875 -7.203125 5.28125 -7.890625 C 5.09375 -8.585938 5.148438 -9.207031 5.453125 -9.75 C 5.773438 -10.320312 6.234375 -10.765625 6.828125 -11.078125 C 7.421875 -11.398438 8.054688 -11.628906 8.734375 -11.765625 C 9.421875 -11.898438 10.078125 -11.972656 10.703125 -11.984375 C 11.335938 -12.003906 11.859375 -12 12.265625 -11.96875 C 12.679688 -11.9375 12.890625 -11.921875 12.890625 -11.921875 C 13.554688 -11.546875 14.1875 -11.097656 14.78125 -10.578125 C 15.375 -10.066406 15.945312 -9.554688 16.5 -9.046875 C 17.0625 -8.546875 17.613281 -8.132812 18.15625 -7.8125 C 18.707031 -7.488281 19.257812 -7.335938 19.8125 -7.359375 L 19.90625 -6.53125 L 13.53125 -5.46875 C 13.113281 -5.695312 12.75 -6.078125 12.4375 -6.609375 C 12.125 -7.140625 11.832031 -7.679688 11.5625 -8.234375 C 11.300781 -8.785156 11.039062 -9.226562 10.78125 -9.5625 C 10.53125 -9.894531 10.242188 -9.976562 9.921875 -9.8125 Z M 9.921875 -9.8125 "/></g></g><g style="fill:#000000;fill-opacity:1;"><g transform="translate(124.167207, 50.573552)"><path style="stroke:none" d="M 19.40625 -5.234375 L 15.859375 -4.609375 L 14.390625 -5.703125 L 10.4375 -0.296875 C 9.957031 0.285156 9.894531 0.832031 10.25 1.34375 C 10.613281 1.851562 11.40625 2.09375 12.625 2.0625 L 12.609375 3.265625 L 4.640625 3.453125 C 4.328125 2.710938 4.253906 1.851562 4.421875 0.875 C 4.585938 -0.09375 5.070312 -1.113281 5.875 -2.1875 L 10.578125 -8.53125 L 7.5625 -10.78125 L 8.15625 -11.5625 L 11.9375 -11.890625 L 12.671875 -11.34375 C 13.222656 -12.113281 13.425781 -12.71875 13.28125 -13.15625 C 13.132812 -13.601562 12.519531 -13.863281 11.4375 -13.9375 L 11.59375 -15.03125 L 18.65625 -15.40625 C 18.882812 -14.695312 19 -14.050781 19 -13.46875 C 19 -12.894531 18.867188 -12.300781 18.609375 -11.6875 C 18.359375 -11.082031 17.929688 -10.398438 17.328125 -9.640625 L 16.484375 -8.515625 L 19.9375 -5.953125 Z M 19.40625 -5.234375 "/></g></g></g></svg>